<svg width="58" height="59" viewBox="0 0 58 59" fill="none" xmlns="http://www.w3.org/2000/svg">
<path d="M17.4171 1.22083C16.3155 1.72473 15.9523 2.48645 15.9523 4.22083V5.45129H14.6983C13.6202 5.45129 13.3507 5.49817 12.8468 5.73254C12.0499 6.10754 11.3351 6.90442 11.0773 7.72473L10.8663 8.38098H8.10069C6.57725 8.38098 5.01866 8.43958 4.63194 8.50989C2.53428 8.89661 0.764753 10.5724 0.190534 12.7286C-0.0555595 13.6427 -0.0672782 53.3575 0.178816 54.2599C0.682722 56.1818 2.13585 57.6466 4.1046 58.2325C4.67881 58.3966 6.43663 58.42 21.6241 58.42C35.5226 58.42 38.6163 58.3849 39.1085 58.256C40.714 57.8341 42.0265 56.7208 42.7648 55.174L43.1983 54.2599L43.2569 51.4474L43.3155 48.6349L49.3507 48.5763C55.2921 48.5177 55.3976 48.5177 55.8663 48.2599C56.4991 47.92 57.2374 47.0763 57.4132 46.4904C57.5187 46.1505 57.5538 42.7872 57.5538 33.6115C57.5538 19.8536 57.6007 20.6036 56.7804 19.6544C56.5577 19.3849 56.0772 19.0333 55.7022 18.8458L55.0343 18.5177L49.1515 18.4825L43.2569 18.4474V15.7755C43.2569 13.42 43.2335 12.9982 43.0226 12.3302C42.5773 10.8888 41.5343 9.68176 40.128 8.97864C39.1437 8.48645 38.3351 8.38098 35.3233 8.38098H32.4991L32.4171 7.99426C32.2062 7.02161 31.503 6.17786 30.5421 5.73254C30.0382 5.48645 29.7687 5.45129 28.6437 5.45129H27.3194V4.18567C27.3194 2.79114 27.1437 2.24036 26.546 1.67786C25.8429 1.02161 25.6671 0.998169 21.6124 0.998169C18.2374 0.998169 17.839 1.02161 17.4171 1.22083ZM25.3273 2.99036C25.5265 3.18958 25.5616 3.37708 25.5616 4.33801V5.45129L21.671 5.42786L17.7687 5.3927L17.7335 4.31458C17.6866 2.65051 17.4288 2.75598 21.6358 2.75598C24.9405 2.75598 25.1046 2.7677 25.3273 2.99036ZM29.9913 7.44348C30.6593 7.85364 30.7179 8.15833 30.7179 11.3693V14.2404H21.6944H12.671V11.3341C12.671 8.08801 12.7179 7.84192 13.503 7.42004C13.878 7.22083 14.3702 7.20911 21.753 7.20911C29.4171 7.20911 29.6163 7.22083 29.9913 7.44348ZM10.9132 11.6622V13.0685H8.11241C5.46397 13.0685 5.29991 13.0802 5.00694 13.3146L4.70225 13.549V33.4122C4.70225 53.1115 4.70225 53.2638 4.93663 53.4982C5.171 53.7325 5.32335 53.7325 21.6124 53.7325C35.6163 53.7325 38.089 53.7091 38.2882 53.5685C38.4874 53.4161 38.5108 53.2052 38.5694 51.0138L38.628 48.6349L40.0694 48.5997L41.5108 48.5646L41.4757 51.1779C41.4405 53.6271 41.4288 53.8263 41.1593 54.4005C40.8194 55.174 39.8585 56.0763 39.0968 56.381C38.5226 56.5919 38.0187 56.6036 21.5773 56.6036H4.64366L3.98741 56.2755C3.21397 55.9005 2.44053 55.1154 2.08897 54.3419L1.83116 53.7911V33.5177V13.2443L2.13585 12.588C2.56944 11.6622 3.22569 10.9825 4.05772 10.5841L4.76085 10.256H7.84288H10.9132V11.6622ZM39.3663 10.5841C40.1398 10.9943 40.7608 11.6154 41.1124 12.3419C41.4405 13.0099 41.4405 13.0216 41.4757 15.7286L41.5108 18.4591H40.046H38.5694V16.0099V13.549L38.2648 13.3146C37.9718 13.0802 37.8077 13.0685 35.2179 13.0685H32.4757V11.6505V10.2443L35.6749 10.2794C38.7335 10.3146 38.8858 10.3263 39.3663 10.5841ZM10.9132 15.2247C10.9132 15.3771 11.0187 15.6232 11.1358 15.7755L11.3585 16.0568L21.6241 16.0919L31.9015 16.1154L32.1827 15.8341C32.3468 15.67 32.4757 15.4005 32.4757 15.2365V14.9435H34.6437H36.8116V16.6896V18.4357L36.2843 18.5177C35.1007 18.6935 34.1046 19.42 33.6358 20.4865L33.3546 21.0958V33.5763V46.0568L33.6827 46.7247C34.1983 47.7677 35.1593 48.4474 36.2608 48.5529L36.8116 48.6115V50.2872V51.9747H21.6358H6.46006V33.4591V14.9435H8.68663H10.9132V15.2247ZM55.1397 20.5802C55.8312 21.1193 55.796 20.4044 55.796 33.6349C55.796 47.0294 55.8429 46.256 55.046 46.631C54.6827 46.795 53.7218 46.8185 45.4483 46.8185H36.2608L35.8624 46.549C35.6515 46.4083 35.4054 46.1505 35.3233 45.9982C35.2062 45.7638 35.171 43.0333 35.171 33.5411C35.171 22.5138 35.1944 21.3302 35.3585 21.049C35.8038 20.299 35.2413 20.3458 45.4952 20.3341C54.7882 20.3341 54.8233 20.3341 55.1397 20.5802Z" fill="black"/>
<path d="M9.69428 22.8068C9.30756 23.1115 9.27241 23.7325 9.62397 24.0841C9.83491 24.295 10.0107 24.3185 11.3818 24.3185C12.7529 24.3185 12.9287 24.295 13.1396 24.0841C13.4912 23.7325 13.456 23.1115 13.0693 22.8068C12.788 22.5841 12.6005 22.5607 11.3818 22.5607C10.163 22.5607 9.97553 22.5841 9.69428 22.8068Z" fill="black"/>
<path d="M15.5419 22.8536C15.1786 23.2052 15.1552 23.756 15.4833 24.0841C15.7177 24.3185 15.8466 24.3185 22.8193 24.295L29.9326 24.2599L30.1669 23.9435C30.4365 23.5919 30.3779 23.1583 30.0146 22.795C29.7919 22.5724 29.5927 22.5606 22.8076 22.5606H15.8232L15.5419 22.8536Z" fill="black"/>
<path d="M9.69421 28.6661C9.31921 28.9591 9.28406 29.545 9.61218 29.9552L9.83484 30.2365H14.7216H19.6083L19.8895 29.9083C20.2645 29.4747 20.2411 29.1818 19.8309 28.7599L19.4911 28.42H14.745C10.1278 28.42 9.9989 28.4318 9.69421 28.6661Z" fill="black"/>
<path d="M22.4328 28.5607C22.2922 28.631 22.1164 28.8419 22.0344 29.0411C21.9172 29.3224 21.9172 29.4396 22.0578 29.6974C22.3742 30.2599 22.5617 30.295 26.1477 30.295C29.7336 30.295 29.9211 30.2599 30.2375 29.6974C30.4602 29.3107 30.2492 28.7482 29.8273 28.549C29.4406 28.3732 22.7961 28.3849 22.4328 28.5607Z" fill="black"/>
<path d="M10.0107 34.3966C9.43647 34.631 9.31929 35.5216 9.81147 35.9083C10.0927 36.131 10.2802 36.1544 11.8037 36.1544C13.3857 36.1544 13.4912 36.1427 13.7958 35.8849C14.206 35.5333 14.2294 34.9591 13.8544 34.5958C13.6201 34.3615 13.4794 34.338 11.9326 34.3146C11.0185 34.3029 10.1513 34.338 10.0107 34.3966Z" fill="black"/>
<path d="M16.4563 34.4551C15.8118 34.7364 15.7883 35.6856 16.4212 36.002C16.7962 36.1895 19.8079 36.213 20.218 36.0255C20.6399 35.8262 20.8508 35.2637 20.6282 34.877C20.5344 34.713 20.3235 34.5137 20.1712 34.4317C19.7493 34.2208 16.9485 34.2325 16.4563 34.4551Z" fill="black"/>
<path d="M23.1007 34.4318C22.9484 34.5138 22.7374 34.713 22.6437 34.8771C22.421 35.2638 22.6319 35.8263 23.0538 36.0255C23.253 36.1075 24.3898 36.1544 26.4405 36.1544C28.4913 36.1544 29.628 36.1075 29.8273 36.0255C30.2491 35.8263 30.4601 35.2638 30.2374 34.8771C29.921 34.3146 29.7101 34.2794 26.4405 34.2794C24.2374 34.2794 23.3116 34.3263 23.1007 34.4318Z" fill="black"/>
<path d="M9.74116 40.4904C9.38959 40.8419 9.42475 41.463 9.81147 41.7677C10.1279 42.0138 10.1865 42.0138 19.9365 42.0138C29.1123 42.0138 29.7685 42.0021 30.0029 41.8029C30.3779 41.4982 30.4365 40.9591 30.1318 40.5724L29.8857 40.256H19.9248C10.1279 40.256 9.97553 40.256 9.74116 40.4904Z" fill="black"/>
<path d="M9.7412 46.3497C9.41308 46.6779 9.43652 47.299 9.77636 47.6154L10.0459 47.8732H19.9248H29.792L30.0732 47.5802C30.2373 47.4279 30.3662 47.1583 30.3662 46.9943C30.3662 46.8302 30.2373 46.5607 30.0732 46.4083L29.792 46.1154H19.8779C10.1279 46.1154 9.97558 46.1154 9.7412 46.3497Z" fill="black"/>
<path d="M37.7725 22.6427C37.374 22.8068 37.2803 23.3341 37.2803 25.549C37.2803 27.7052 37.2803 27.7286 37.5732 28.0099L37.8545 28.3029H45.4834C52.9482 28.3029 53.1006 28.3029 53.335 28.0685C53.5576 27.8458 53.5693 27.6818 53.5693 25.4435V23.0411L53.2646 22.8068C52.96 22.5607 52.8662 22.5607 45.4365 22.5724C41.3115 22.5724 37.8545 22.6075 37.7725 22.6427ZM51.8115 25.4318V26.545H45.4834H39.1553V25.4318V24.3185H45.4834H51.8115V25.4318Z" fill="black"/>
<path d="M37.5732 31.9943C37.4092 32.1466 37.2803 32.4161 37.2803 32.5802C37.2803 32.7443 37.4092 33.0138 37.5732 33.1661C37.8193 33.4122 37.96 33.4591 38.6045 33.4591C39.5654 33.4591 39.9053 33.2247 39.9053 32.5802C39.9053 31.9357 39.5654 31.7013 38.6045 31.7013C37.96 31.7013 37.8193 31.7482 37.5732 31.9943Z" fill="black"/>
<path d="M41.675 31.9943C41.3234 32.3458 41.3 32.7443 41.6281 33.1544C41.8391 33.424 41.9445 33.4591 42.6125 33.4591C43.0227 33.4591 43.4445 33.424 43.55 33.3888C43.8664 33.2599 44.0773 32.6622 43.9367 32.2638C43.7727 31.8185 43.5266 31.7013 42.6711 31.7013C42.0734 31.7013 41.9094 31.7482 41.675 31.9943Z" fill="black"/>
<path d="M45.7883 31.9473C45.3898 32.2638 45.3664 32.8497 45.7531 33.2013C46.1398 33.5645 47.4758 33.5763 47.8273 33.2247C48.1554 32.8966 48.132 32.2755 47.7922 31.9591C47.4054 31.5958 46.2453 31.5958 45.7883 31.9473Z" fill="black"/>
<path d="M49.9601 31.9708C49.632 32.3224 49.6203 32.9083 49.9367 33.2247C50.1476 33.4357 50.3234 33.4591 51.6359 33.4591C52.9484 33.4591 53.1242 33.4357 53.3351 33.2247C53.6515 32.9083 53.6515 32.2521 53.3117 31.9357C53.089 31.7247 52.9015 31.7013 51.6359 31.7013C50.3 31.7013 50.1945 31.713 49.9601 31.9708Z" fill="black"/>
<path d="M37.5146 35.6505C37.2099 36.0372 37.2685 36.5763 37.6435 36.881C37.8896 37.0919 39.0263 37.174 39.4482 37.0216C39.7177 36.9162 39.999 36.3068 39.9052 36.0021C39.7412 35.4513 39.5185 35.3341 38.6162 35.3341C37.831 35.3341 37.749 35.3576 37.5146 35.6505Z" fill="black"/>
<path d="M41.6281 35.6388C41.3 36.049 41.3234 36.4474 41.675 36.799C41.9094 37.045 42.0734 37.0919 42.6594 37.0919C43.55 37.0919 44.007 36.7638 43.9836 36.1427C43.9719 35.545 43.632 35.3341 42.6711 35.3341C41.9445 35.3341 41.8391 35.3575 41.6281 35.6388Z" fill="black"/>
<path d="M45.7413 35.6036C45.4014 35.9669 45.4131 36.4474 45.7764 36.799C46.0108 37.045 46.1749 37.0919 46.7491 37.0919C47.6397 37.0919 48.0616 36.799 48.0616 36.2013C48.0616 35.5568 47.7452 35.3341 46.7959 35.3341C46.1045 35.3341 45.9522 35.3693 45.7413 35.6036Z" fill="black"/>
<path d="M49.9367 35.5685C49.5852 35.92 49.6203 36.5411 50.007 36.8458C50.2766 37.0568 50.4875 37.0919 51.6359 37.0919C52.7844 37.0919 52.9953 37.0568 53.2648 36.8458C53.6516 36.5411 53.6867 35.92 53.3352 35.5685C53.1242 35.3575 52.9484 35.3341 51.6359 35.3341C50.3234 35.3341 50.1477 35.3575 49.9367 35.5685Z" fill="black"/>
<path d="M37.6201 39.0724C37.4326 39.2599 37.2803 39.5294 37.2803 39.67C37.2803 39.8107 37.4326 40.0802 37.6201 40.2677C37.9248 40.5607 38.0537 40.6075 38.6279 40.6075C39.2021 40.6075 39.3311 40.5607 39.6357 40.2677C39.8232 40.0802 39.9756 39.8107 39.9756 39.67C39.9756 39.5294 39.8232 39.2599 39.6357 39.0724C39.3311 38.7794 39.2021 38.7325 38.6279 38.7325C38.0537 38.7325 37.9248 38.7794 37.6201 39.0724Z" fill="black"/>
<path d="M41.8272 38.9083C41.2178 39.2482 41.253 40.1154 41.874 40.4435C42.3428 40.6896 43.3858 40.6193 43.7256 40.3146C44.042 40.0216 44.042 39.3185 43.7256 39.0255C43.3975 38.7326 42.2608 38.6622 41.8272 38.9083Z" fill="black"/>
<path d="M45.9875 38.8497C45.4719 39.0724 45.3195 39.799 45.7063 40.2677C45.9055 40.5138 46.0344 40.549 46.7727 40.549C47.5109 40.549 47.6398 40.5138 47.8391 40.2677C48.1203 39.9161 48.1203 39.424 47.8391 39.0724C47.675 38.8615 47.4875 38.8029 46.9367 38.7677C46.5617 38.756 46.1281 38.7794 45.9875 38.8497Z" fill="black"/>
<path d="M50.171 38.8731C49.796 39.0724 49.6202 39.5646 49.7726 39.9864C49.9483 40.5138 50.3116 40.6192 51.7647 40.5841C53.2999 40.5489 53.5694 40.4083 53.5694 39.67C53.5694 38.9317 53.2999 38.7911 51.7647 38.756C50.8741 38.7325 50.3702 38.7677 50.171 38.8731Z" fill="black"/>
<path d="M37.8311 42.799C37.6201 42.8575 37.2803 43.3966 37.2803 43.6896C37.2803 43.7833 37.3857 43.9943 37.5264 44.17L37.7607 44.4747H39.7529C41.5811 44.4747 41.7568 44.4513 41.9678 44.2404C42.2959 43.9122 42.2725 43.3615 41.9092 43.0099C41.6279 42.7286 41.5928 42.7169 39.835 42.7286C38.8506 42.7404 37.9482 42.7638 37.8311 42.799Z" fill="black"/>
<path d="M44.2647 42.963C44.0303 43.1505 43.96 43.3028 43.96 43.6544C43.96 44.4864 43.9131 44.4747 48.7881 44.4747C52.9483 44.4747 53.1123 44.463 53.335 44.2403C53.6865 43.8888 53.6514 43.2677 53.2647 42.963C52.96 42.7286 52.8194 42.7169 48.7647 42.7169C44.71 42.7169 44.5694 42.7286 44.2647 42.963Z" fill="black"/>
</svg>
