<?xml version="1.0" encoding="UTF-8"?>
<!DOCTYPE svg PUBLIC "-//W3C//DTD SVG 1.1//EN" "http://www.w3.org/Graphics/SVG/1.1/DTD/svg11.dtd">
<svg xmlns="http://www.w3.org/2000/svg" version="1.1" width="4420px" height="372px" style="shape-rendering:geometricPrecision; text-rendering:geometricPrecision; image-rendering:optimizeQuality; fill-rule:evenodd; clip-rule:evenodd" xmlns:xlink="http://www.w3.org/1999/xlink">
<g><path style="opacity:0.95" fill="#e6a154" d="M 2204.5,-0.5 C 2207.83,-0.5 2211.17,-0.5 2214.5,-0.5C 2233.51,6.66995 2247.35,19.67 2256,38.5C 2264.51,60.4445 2264.51,82.4445 2256,104.5C 2252.21,114.073 2247.88,123.407 2243,132.5C 2237.27,141.239 2231.94,150.239 2227,159.5C 2218.8,178.97 2220.46,197.637 2232,215.5C 2238.46,225.623 2246.62,234.123 2256.5,241C 2275.09,249.467 2288.59,244.3 2297,225.5C 2301.98,214.31 2301.64,203.31 2296,192.5C 2292.83,196.7 2289.33,200.533 2285.5,204C 2272.25,209.801 2262.08,206.301 2255,193.5C 2249.7,172.954 2257.53,160.454 2278.5,156C 2304.69,155.521 2317.69,168.521 2317.5,195C 2317.07,211.609 2312.24,226.775 2303,240.5C 2298.95,245.057 2294.45,249.057 2289.5,252.5C 2321.5,256.755 2344.33,244.422 2358,215.5C 2362.34,201.525 2360.34,188.525 2352,176.5C 2344.46,165.957 2335.29,157.124 2324.5,150C 2317.57,145.019 2309.91,143.019 2301.5,144C 2299.6,145.301 2297.6,145.968 2295.5,146C 2311.96,134.431 2329.62,132.431 2348.5,140C 2351.91,141.455 2355.08,143.288 2358,145.5C 2357.24,127.159 2349.07,112.992 2333.5,103C 2326.57,99.0228 2319.24,96.0228 2311.5,94C 2347.27,87.6346 2374.44,100.135 2393,131.5C 2408.32,172.621 2402.48,210.455 2375.5,245C 2415.83,249.397 2441.99,270.897 2454,309.5C 2458.44,335.614 2449.94,356.281 2428.5,371.5C 2427.83,371.5 2427.17,371.5 2426.5,371.5C 2430.82,363.184 2434.32,354.517 2437,345.5C 2439.19,334.738 2436.52,325.404 2429,317.5C 2424.69,332.29 2417.19,345.123 2406.5,356C 2399.87,361.82 2392.21,364.487 2383.5,364C 2401.29,348.662 2405.46,330.162 2396,308.5C 2388.24,296.359 2377.41,288.193 2363.5,284C 2341.35,277.085 2318.68,273.419 2295.5,273C 2308.17,290.509 2308.67,308.342 2297,326.5C 2282.51,343.552 2264.67,348.386 2243.5,341C 2227.22,333.604 2222.05,321.437 2228,304.5C 2232.36,297.589 2238.7,294.256 2247,294.5C 2261.48,294.622 2267.48,301.622 2265,315.5C 2264.53,316.931 2263.7,318.097 2262.5,319C 2268.8,320.952 2273.96,319.119 2278,313.5C 2284.87,298.161 2283.54,283.494 2274,269.5C 2266.28,265.391 2258.78,260.891 2251.5,256C 2232.44,239.088 2218.44,218.588 2209.5,194.5C 2200.06,219.745 2185.06,240.912 2164.5,258C 2158.65,261.426 2152.65,264.592 2146.5,267.5C 2135.57,281.814 2133.73,297.148 2141,313.5C 2144.93,318.701 2150.1,320.534 2156.5,319C 2149.79,307.484 2152.79,299.484 2165.5,295C 2187.82,293.327 2196.66,303.494 2192,325.5C 2184.36,338.076 2173.03,344.409 2158,344.5C 2136.13,343.295 2121.8,332.295 2115,311.5C 2111.96,297.365 2114.79,284.531 2123.5,273C 2099.21,273.215 2075.54,277.215 2052.5,285C 2026.82,294.326 2015.66,312.493 2019,339.5C 2021.9,349.487 2027.4,357.654 2035.5,364C 2023.96,363.981 2014.46,359.481 2007,350.5C 1999.22,340.282 1993.56,328.949 1990,316.5C 1981.13,327.265 1979.13,339.265 1984,352.5C 1986.74,358.904 1989.58,365.238 1992.5,371.5C 1991.83,371.5 1991.17,371.5 1990.5,371.5C 1966.24,353.893 1958.41,330.56 1967,301.5C 1981.14,267.372 2006.64,248.539 2043.5,245C 2017.44,212.036 2010.94,175.536 2024,135.5C 2041.62,100.94 2069.45,87.1067 2107.5,94C 2082.2,99.6381 2066.53,114.971 2060.5,140C 2060.83,141.5 2061.17,143 2061.5,144.5C 2077.67,134.853 2094.67,133.02 2112.5,139C 2116.67,140.584 2120.34,142.918 2123.5,146C 2114.65,142.281 2105.98,142.948 2097.5,148C 2082.62,157.215 2070.79,169.381 2062,184.5C 2054.6,213.533 2064.43,234.699 2091.5,248C 2103.88,253.293 2116.55,254.626 2129.5,252C 2118.19,244.57 2110.36,234.404 2106,221.5C 2100.93,206.676 2100.26,191.676 2104,176.5C 2114.83,155.786 2131,150.286 2152.5,160C 2167.23,170.893 2169.73,184.059 2160,199.5C 2150.75,208.41 2140.91,209.243 2130.5,202C 2128,198.833 2125.5,195.667 2123,192.5C 2115.25,211.057 2118.75,227.224 2133.5,241C 2140.29,245.65 2147.63,246.65 2155.5,244C 2174.58,233.663 2187.42,218.163 2194,197.5C 2196.73,183.784 2195.39,170.45 2190,157.5C 2180.47,139.779 2171.47,121.779 2163,103.5C 2150.1,66.5369 2157.93,34.7035 2186.5,8C 2192.21,4.31011 2198.21,1.47678 2204.5,-0.5 Z M 2205.5,15.5 C 2227.73,16.378 2242.56,27.378 2250,48.5C 2254.81,69.1903 2252.81,89.1903 2244,108.5C 2234.49,127.532 2222.99,145.198 2209.5,161.5C 2195.67,144.528 2183.84,126.194 2174,106.5C 2166.39,89.4047 2164.39,71.738 2168,53.5C 2171.48,41.38 2178.32,31.5466 2188.5,24C 2193.71,20.0607 2199.38,17.2273 2205.5,15.5 Z"/></g>
<g><path style="opacity:0.974" fill="#e6a154" d="M 1891.5,163.5 C 1915.76,186.095 1939.43,209.428 1962.5,233.5C 1939.5,257.167 1916.17,280.5 1892.5,303.5C 1868.83,280.5 1845.5,257.167 1822.5,233.5C 1845.52,210.146 1868.52,186.812 1891.5,163.5 Z"/></g>
<g><path style="opacity:0.974" fill="#e6a154" d="M 2525.5,163.5 C 2549.76,186.095 2573.43,209.428 2596.5,233.5C 2573.5,257.167 2550.17,280.5 2526.5,303.5C 2502.83,280.5 2479.5,257.167 2456.5,233.5C 2479.52,210.146 2502.52,186.812 2525.5,163.5 Z"/></g>
<g><path style="opacity:0.947" fill="#e6a154" d="M 1758.5,188.5 C 1759.55,188.351 1760.55,188.517 1761.5,189C 1776.35,203.681 1791.01,218.514 1805.5,233.5C 1790.81,249.027 1775.64,264.027 1760,278.5C 1744.36,264.027 1729.19,249.027 1714.5,233.5C 1729.19,218.479 1743.85,203.479 1758.5,188.5 Z"/></g>
<g><path style="opacity:0.947" fill="#e6a154" d="M 2657.5,188.5 C 2658.55,188.351 2659.55,188.517 2660.5,189C 2675.35,203.681 2690.01,218.514 2704.5,233.5C 2689.81,249.027 2674.64,264.027 2659,278.5C 2643.36,264.027 2628.19,249.027 2613.5,233.5C 2628.19,218.479 2642.85,203.479 2657.5,188.5 Z"/></g>
<g><path style="opacity:0.971" fill="#e6a154" d="M -0.5,233.5 C -0.5,233.167 -0.5,232.833 -0.5,232.5C 547.019,222.415 1094.52,211.748 1642,200.5C 1643.97,200.542 1645.8,201.042 1647.5,202C 1665.32,212.336 1682.99,222.836 1700.5,233.5C 1682.17,244 1663.83,254.5 1645.5,265C 1636.67,265.167 1627.83,265.333 1619,265.5C 1079.14,255.127 539.31,244.46 -0.5,233.5 Z"/></g>
<g><path style="opacity:0.971" fill="#e6a154" d="M 4419.5,232.5 C 4419.5,232.833 4419.5,233.167 4419.5,233.5C 3879.69,244.46 3339.86,255.127 2800,265.5C 2791.17,265.333 2782.33,265.167 2773.5,265C 2755.17,254.5 2736.83,244 2718.5,233.5C 2736.01,222.836 2753.68,212.336 2771.5,202C 2773.2,201.042 2775.03,200.542 2777,200.5C 3324.48,211.748 3871.98,222.415 4419.5,232.5 Z"/></g>
</svg>
