<svg width="19" height="20" viewBox="0 0 19 20" fill="none" xmlns="http://www.w3.org/2000/svg">
<path d="M9.82671 1.25C8.2086 1.25215 6.6573 1.97717 5.51312 3.26602C4.36894 4.55486 3.7253 6.3023 3.7234 8.125C3.72146 9.61452 4.15339 11.0636 4.95294 12.25C4.95294 12.25 5.11939 12.4969 5.14658 12.5325L9.82671 18.75L14.5091 12.5294C14.5335 12.4963 14.7005 12.25 14.7005 12.25L14.701 12.2481C15.5002 11.0623 15.9319 9.61383 15.93 8.125C15.9281 6.3023 15.2845 4.55486 14.1403 3.26602C12.9961 1.97717 11.4448 1.25215 9.82671 1.25ZM9.82671 10.625C9.38776 10.625 8.95866 10.4784 8.59369 10.2037C8.22871 9.92897 7.94425 9.53852 7.77627 9.08171C7.60828 8.62489 7.56433 8.12223 7.64997 7.63727C7.7356 7.15232 7.94698 6.70686 8.25737 6.35723C8.56775 6.0076 8.96321 5.7695 9.39373 5.67304C9.82425 5.57657 10.2705 5.62608 10.676 5.8153C11.0816 6.00452 11.4282 6.32495 11.6721 6.73607C11.9159 7.1472 12.0461 7.63055 12.0461 8.125C12.0454 8.78779 11.8113 9.42319 11.3952 9.89185C10.9792 10.3605 10.4151 10.6242 9.82671 10.625Z" fill="white"/>
<path d="M9.82671 1.25C8.2086 1.25215 6.6573 1.97717 5.51312 3.26602C4.36894 4.55486 3.7253 6.3023 3.7234 8.125C3.72146 9.61452 4.15339 11.0636 4.95294 12.25C4.95294 12.25 5.11939 12.4969 5.14658 12.5325L9.82671 18.75L14.5091 12.5294C14.5335 12.4963 14.7005 12.25 14.7005 12.25L14.701 12.2481C15.5002 11.0623 15.9319 9.61383 15.93 8.125C15.9281 6.3023 15.2845 4.55486 14.1403 3.26602C12.9961 1.97717 11.4448 1.25215 9.82671 1.25ZM9.82671 10.625C9.38776 10.625 8.95866 10.4784 8.59369 10.2037C8.22871 9.92897 7.94425 9.53852 7.77627 9.08171C7.60828 8.62489 7.56433 8.12223 7.64997 7.63727C7.7356 7.15232 7.94698 6.70686 8.25737 6.35723C8.56775 6.0076 8.96321 5.7695 9.39373 5.67304C9.82425 5.57657 10.2705 5.62608 10.676 5.8153C11.0816 6.00452 11.4282 6.32495 11.6721 6.73607C11.9159 7.1472 12.0461 7.63055 12.0461 8.125C12.0454 8.78779 11.8113 9.42319 11.3952 9.89185C10.9792 10.3605 10.4151 10.6242 9.82671 10.625Z" fill="white"/>
</svg>
