<?xml version="1.0" standalone="no"?>
<!DOCTYPE svg PUBLIC "-//W3C//DTD SVG 20010904//EN"
 "http://www.w3.org/TR/2001/REC-SVG-20010904/DTD/svg10.dtd">
<svg version="1.0" xmlns="http://www.w3.org/2000/svg"
 width="335.000000pt" height="155.000000pt" viewBox="0 0 335.000000 155.000000"
 preserveAspectRatio="xMidYMid meet">

<g transform="translate(0.000000,155.000000) scale(0.100000,-0.100000)"
fill="#000000" stroke="none">
<path d="M1572 1459 c-176 -29 -330 -193 -352 -372 -17 -142 26 -270 124 -370
237 -240 648 -134 737 191 43 158 5 306 -109 425 -26 26 -52 47 -59 47 -7 0
-13 4 -13 9 0 17 -104 60 -170 71 -73 11 -84 11 -158 -1z m116 -317 c90 -220
115 -272 133 -277 11 -4 17 -11 14 -16 -8 -12 -112 -12 -120 1 -3 6 1 10 10
10 25 0 27 23 6 73 l-20 47 -64 0 -64 0 -21 -52 -20 -53 24 -11 c14 -5 21 -13
18 -17 -8 -8 -104 -10 -104 -2 0 3 8 13 18 23 10 10 47 89 82 175 35 86 69
157 75 157 5 0 21 -26 33 -58z"/>
<path d="M1622 1075 c-12 -31 -22 -61 -22 -66 0 -5 23 -9 51 -9 37 0 50 3 46
13 -3 6 -13 32 -22 57 -10 25 -21 49 -25 53 -4 4 -17 -17 -28 -48z"/>
</g>
</svg>
