<?xml version="1.0" standalone="no"?>
<!DOCTYPE svg PUBLIC "-//W3C//DTD SVG 20010904//EN"
 "http://www.w3.org/TR/2001/REC-SVG-20010904/DTD/svg10.dtd">
<svg version="1.0" xmlns="http://www.w3.org/2000/svg"
 width="190.000000pt" height="91.000000pt" viewBox="0 0 190.000000 91.000000"
 preserveAspectRatio="xMidYMid meet">

<g transform="translate(0.000000,91.000000) scale(0.100000,-0.100000)"
fill="#000000" stroke="none">
<path d="M850 845 c-92 -29 -162 -128 -163 -230 0 -141 103 -245 243 -245 100
0 175 46 223 135 33 62 31 165 -5 226 -63 107 -178 151 -298 114z m120 -212
c18 -43 38 -88 46 -100 14 -22 13 -23 -23 -23 -26 0 -33 3 -24 9 10 7 11 16 4
37 -8 24 -15 29 -44 29 -27 0 -36 -5 -47 -29 -12 -24 -12 -30 -1 -37 9 -6 2
-8 -21 -8 -19 0 -30 3 -24 5 6 3 28 47 49 99 21 52 42 95 46 95 4 0 21 -35 39
-77z"/>
<path d="M912 635 c-16 -35 -16 -35 13 -35 28 0 32 17 12 44 -12 17 -14 16
-25 -9z"/>
</g>
</svg>
