<svg width="60" height="60" viewBox="0 0 60 60" fill="none" xmlns="http://www.w3.org/2000/svg">
<path d="M47.3071 1.98882L40.9341 3.97671H37.2727L33.6114 3.98921L33.3115 4.30177C33.049 4.55182 32.9991 4.72685 32.9991 5.30196V5.98959H31.8119C30.7123 5.98959 30.5873 6.0146 30.3124 6.30215C30 6.60221 30 6.62722 30 8.99017C30 11.3531 30 11.3781 30.3124 11.6782C30.5873 11.9657 30.7123 11.9907 31.8119 11.9907H32.9991V12.4908V12.9909H30H27.0009V8.30254V3.60163L26.6885 3.30158L26.3886 2.98902H16.0044H5.62012L5.32021 3.30158L5.00781 3.60163V8.30254V12.9909H3.80819C3.14589 12.9909 2.37113 13.0535 2.08372 13.141C1.39644 13.341 0.359263 14.3787 0.159325 15.0663C-0.0531084 15.8165 -0.0531084 48.1727 0.159325 48.9229C0.359263 49.6105 1.39644 50.6482 2.08372 50.8482C2.4711 50.9608 5.48266 50.9983 14.3049 50.9983H26.0012V52.4986V53.9988H22.8147H19.6157L19.3158 54.3114C19.0034 54.6115 19.0034 54.6365 19.0034 56.9994C19.0034 59.3624 19.0034 59.3874 19.3158 59.6874L19.6157 60H30H40.3843L40.6842 59.6874C40.9966 59.3874 40.9966 59.3624 40.9966 56.9994C40.9966 54.6365 40.9966 54.6115 40.6842 54.3114L40.3843 53.9988H37.1853H33.9988V52.4986V50.9983H45.6951C54.5173 50.9983 57.5289 50.9608 57.9163 50.8482C58.6036 50.6482 59.6407 49.6105 59.8407 48.9229C60.0531 48.1727 60.0531 15.8165 59.8407 15.0663C59.6407 14.3787 58.6036 13.341 57.9163 13.141C57.6289 13.0535 56.8541 12.9909 56.1918 12.9909H54.9922V12.4908V11.9907H55.692C56.7791 11.9907 57.354 11.7657 58.0537 11.0531C59.3283 9.79033 59.3283 8.19002 58.0537 6.92728C57.354 6.21464 56.7791 5.98959 55.692 5.98959H54.9922V3.30158C54.9922 0.601055 54.9922 0.601055 54.6798 0.300999C54.4923 0.10096 54.2424 -0.0115623 54.03 0.00094223C53.8425 0.00094223 50.8185 0.901115 47.3071 1.98882ZM52.9928 9.00267C52.9928 15.2539 52.9803 15.629 52.7804 15.5664C52.318 15.4289 42.2962 12.3533 42.1462 12.3033C42.0212 12.2533 41.9963 11.5282 42.0212 8.97767L42.0587 5.71454L47.4321 4.05172C50.3936 3.12654 52.8429 2.3764 52.9053 2.3764C52.9553 2.3639 52.9928 5.35197 52.9928 9.00267ZM25.0016 11.9907V18.9921H16.0044H7.00719V11.9907V4.9894H16.0044H25.0016V11.9907ZM39.9969 8.99017V11.9907H37.4977H34.9984V8.99017V5.98959H37.4977H39.9969V8.99017ZM32.9991 8.99017V9.99036H32.4992H31.9994V8.99017V7.98998H32.4992H32.9991V8.99017ZM56.6792 8.30254C56.8791 8.49008 56.9916 8.75263 56.9916 8.99017C56.9916 9.6278 56.5167 9.99036 55.6795 9.99036H54.9922V8.99017V7.98998H55.6795C56.2543 7.98998 56.4292 8.03999 56.6792 8.30254ZM37.8101 14.2662C37.7851 14.4287 37.6351 15.3914 37.4977 16.4291C37.1103 19.2171 37.1978 18.9921 36.548 18.9921H35.9981V16.4916V13.9911H36.9353C37.8475 13.9911 37.8725 14.0036 37.8101 14.2662ZM47.3446 15.9915C50.906 17.0917 53.955 17.9919 54.105 17.9919C54.2549 17.9919 54.5173 17.8544 54.6798 17.6793C54.9672 17.4043 54.9922 17.2793 54.9922 16.1791V14.9913H56.1793C57.279 14.9913 57.4039 15.0163 57.6789 15.3039L57.9913 15.6039V30.3068V44.9971H30H2.00875V30.3068V15.6039L2.32115 15.3039C2.59606 15.0163 2.72102 14.9913 3.82068 14.9913H5.00781V17.6793C5.00781 20.3799 5.00781 20.3799 5.32021 20.6799L5.62012 20.9925H16.0044H26.3886L26.6885 20.6799C27.0009 20.3799 27.0009 20.3799 27.0009 17.6793V14.9913H30.4998H33.9988V17.6793C33.9988 21.205 33.8488 20.9925 36.498 20.9925C39.0472 20.9925 38.8347 21.255 39.3596 17.4918C39.8969 13.6786 39.7969 13.9911 40.3718 13.9911C40.6342 13.9911 43.7707 14.8913 47.3446 15.9915ZM57.9913 47.6851C57.9913 48.2602 57.9413 48.4353 57.6789 48.6853L57.3789 48.9979H30H2.62106L2.32115 48.6853C2.05873 48.4353 2.00875 48.2602 2.00875 47.6851V46.9975H30H57.9913V47.6851ZM31.9994 52.4986V53.9988H30H28.0006V52.4986V50.9983H30H31.9994V52.4986ZM38.9972 56.9994V57.9996H30H21.0028V56.9994V55.9992H30H38.9972V56.9994Z" fill="black"/>
<path d="M13.3178 8.3026L13.0054 8.60265V11.9908V15.379L13.3178 15.679C13.4927 15.8666 13.7551 15.9916 13.9676 15.9916C14.155 15.9791 15.7795 15.2414 17.5664 14.3288C21.0778 12.5534 21.2028 12.4409 20.9279 11.6407C20.8279 11.3532 20.3281 11.0531 17.5664 9.65286C15.7795 8.74018 14.155 8.00254 13.9676 7.99004C13.7551 7.99004 13.4927 8.11506 13.3178 8.3026ZM17.6289 11.9908C17.6289 12.0283 17.0416 12.3534 16.3168 12.7159L15.0047 13.3661V11.9908V10.6155L16.3168 11.2657C17.0416 11.6282 17.6289 11.9533 17.6289 11.9908Z" fill="black"/>
<path d="M34.3114 23.3054L33.999 23.6055V29.9942V36.3829L34.3114 36.683C34.5863 36.9706 34.7113 36.9956 35.811 36.9956H36.9981V38.6834C36.9981 40.3212 37.0106 40.3962 37.3105 40.6838L37.6104 40.9963H46.4951H55.3798L55.6797 40.6838L55.9922 40.3837V33.995V27.6063L55.6797 27.3062C55.4298 27.0436 55.2549 26.9936 54.6801 26.9936H53.9928V25.3058C53.9928 23.668 53.9803 23.593 53.6804 23.3054L53.3805 22.9929H43.9959H34.6113L34.3114 23.3054ZM51.9934 25.9934V26.9936H44.8081H37.6104L37.3105 27.3062L36.9981 27.6063V31.307V34.9952H36.4982H35.9984V29.9942V24.9933H43.9959H51.9934V25.9934ZM53.9928 33.995V38.996H46.4951H38.9975V33.995V28.994H46.4951H53.9928V33.995Z" fill="black"/>
<path d="M40.9966 31.9946V32.9948H41.9963H42.996V31.9946V30.9944H41.9963H40.9966V31.9946Z" fill="black"/>
<path d="M44.9954 31.9946V32.9948H48.4943H51.9932V31.9946V30.9944H48.4943H44.9954V31.9946Z" fill="black"/>
<path d="M40.9966 35.9954V36.9956H42.996H44.9953V35.9954V34.9952H42.996H40.9966V35.9954Z" fill="black"/>
<path d="M46.9946 35.9954V36.9956H49.4938H51.9931V35.9954V34.9952H49.4938H46.9946V35.9954Z" fill="black"/>
<path d="M4.3207 25.3058L4.0083 25.6059V33.995V42.3841L4.3207 42.6841L4.62061 42.9967H18.0039H31.3872L31.6872 42.6841L31.9996 42.3841V33.995V25.6059L31.6872 25.3058L31.3872 24.9932H18.0039H4.62061L4.3207 25.3058ZM27.3635 27.0436C27.1886 27.2062 18.1039 32.7447 18.0164 32.7447C17.9165 32.7447 8.84429 27.2187 8.64435 27.0436C8.61936 27.0186 12.8305 26.9936 18.0039 26.9936C23.1773 26.9936 27.3885 27.0186 27.3635 27.0436ZM11.9308 31.432C15.1298 33.3949 17.854 34.9952 18.0039 34.9952C18.1664 34.9952 20.8905 33.3949 24.0895 31.432C27.276 29.4691 29.9002 27.8688 29.9377 27.8688C29.9752 27.8688 30.0002 30.8194 30.0002 34.4326V40.9963H18.0039H6.00768V34.4326C6.00768 30.8194 6.04516 27.8688 6.08265 27.8688C6.12014 27.8688 8.75682 29.4691 11.9308 31.432Z" fill="black"/>
</svg>
