<svg width="85" height="85" viewBox="0 0 85 85" fill="none" xmlns="http://www.w3.org/2000/svg">
<g clip-path="url(#clip0_53103_82)">
<path d="M84.9998 60.0264C84.9998 55.0526 83.5103 50.25 80.6921 46.1376C78.665 43.1797 76.0546 40.7234 73.0296 38.898C76.5911 35.5252 78.8195 30.7582 78.8195 25.4774C78.8195 15.2806 70.5236 6.9847 60.327 6.9847C54.2806 6.9847 48.6167 9.97501 45.1764 14.8838C44.3022 14.7564 43.409 14.6878 42.4999 14.6878C41.5907 14.6878 40.6978 14.7567 39.8236 14.8838C36.383 9.97501 30.7191 6.9847 24.673 6.9847C14.4762 6.9847 6.1803 15.2806 6.1803 25.4774C6.1803 30.7582 8.40865 35.5252 11.9704 38.898C8.94515 40.7231 6.33479 43.1797 4.30793 46.1374C1.48968 50.25 0 55.0526 0 60.0264V70.3125H17.8271V78.0153H67.1731V70.3125H85V60.0264H84.9998ZM60.327 11.5489C68.0072 11.5489 74.2555 17.7972 74.2555 25.4777C74.2555 33.1581 68.0072 39.4064 60.327 39.4064C60.1894 39.4064 60.0518 39.4044 59.9139 39.4003C59.9244 39.3711 59.9331 39.3412 59.9434 39.312C60.1811 38.6379 60.3795 37.9455 60.5385 37.2383C60.5497 37.1881 60.5625 37.1384 60.5732 37.0879C60.6145 36.8972 60.6508 36.7046 60.6862 36.5115C60.7028 36.4202 60.7199 36.3292 60.7352 36.2377C60.764 36.0654 60.79 35.8924 60.8139 35.7187C60.8306 35.598 60.8457 35.4773 60.86 35.3564C60.8781 35.203 60.8956 35.0494 60.91 34.8949C60.9246 34.7373 60.9356 34.5794 60.9461 34.4212C60.9543 34.2966 60.9646 34.1725 60.9703 34.0472C60.9828 33.7786 60.9899 33.5096 60.9908 33.2403C60.9908 33.2204 60.9924 33.201 60.9924 33.181C60.9924 33.1702 60.9915 33.1595 60.9915 33.1488C60.991 32.8738 60.983 32.6004 60.9707 32.3279C60.9671 32.2488 60.9623 32.1698 60.9577 32.0908C60.9442 31.8592 60.9267 31.6287 60.905 31.3994C60.9 31.3474 60.8959 31.2953 60.8906 31.2435C60.201 24.5781 55.9901 18.8729 49.9154 16.234C52.5331 13.2932 56.3193 11.5489 60.327 11.5489ZM37.6806 20.1113C37.7251 20.0951 37.77 20.0799 37.8145 20.0639C37.953 20.0144 38.0927 19.9674 38.233 19.9219C38.3394 19.8879 38.4464 19.8551 38.5541 19.8236C38.6324 19.8005 38.7109 19.7784 38.7896 19.7565C38.9302 19.7179 39.0714 19.6803 39.2141 19.6458C40.2683 19.3898 41.3678 19.2508 42.4994 19.2508C43.632 19.2517 44.7319 19.3909 45.7864 19.647C45.9281 19.6812 46.0685 19.7186 46.2083 19.757C46.2882 19.7791 46.3681 19.8015 46.4473 19.825C46.5536 19.8562 46.6595 19.8886 46.7647 19.9222C46.9069 19.968 47.0481 20.0155 47.1882 20.0657C47.2313 20.081 47.2745 20.0956 47.3174 20.1113C51.9756 21.834 55.4682 25.9797 56.2586 31.0108C56.2648 31.0509 56.2707 31.0913 56.2767 31.1317C56.302 31.3022 56.3232 31.474 56.3422 31.6463C56.349 31.7098 56.3563 31.773 56.3625 31.8366C56.3775 31.9939 56.3887 32.1522 56.3988 32.3111C56.4029 32.3791 56.4086 32.4468 56.4118 32.5151C56.4214 32.7179 56.4266 32.9219 56.4273 33.1271C56.4273 33.1449 56.4284 33.1622 56.4284 33.18C56.4284 33.1883 56.428 33.1967 56.428 33.2049C56.4275 33.4034 56.4216 33.6006 56.4129 33.7971C56.4102 33.8589 56.4074 33.9208 56.4038 33.9824C56.3931 34.1722 56.3789 34.3612 56.3607 34.5488C56.3536 34.6213 56.344 34.6937 56.3358 34.766C56.3219 34.8874 56.3063 35.0086 56.2895 35.1291C56.2762 35.2229 56.263 35.3169 56.2479 35.4102C56.2249 35.5524 56.1993 35.6936 56.1719 35.8344C56.1475 35.9597 56.1208 36.0845 56.093 36.2091C56.0763 36.2842 56.059 36.3593 56.0409 36.4339C55.9964 36.619 55.9476 36.8029 55.8956 36.9862C55.8748 37.059 55.8554 37.1322 55.8335 37.2043C55.8018 37.3093 55.7676 37.4133 55.7336 37.5174C55.7062 37.6007 55.6781 37.6835 55.6491 37.7661C55.6163 37.8599 55.5839 37.9539 55.5492 38.0471C55.4901 38.2052 55.428 38.362 55.3634 38.5174C55.3347 38.5867 55.3041 38.6554 55.2742 38.7246C55.2178 38.854 55.1599 38.9827 55.0996 39.11C55.0926 39.1251 55.0855 39.1401 55.0784 39.1552C55.0567 39.2004 55.0353 39.2458 55.0131 39.291C54.9456 39.4288 54.8753 39.565 54.8032 39.7001C54.7751 39.7526 54.748 39.8058 54.7192 39.858C54.7174 39.8615 54.7156 39.8647 54.7137 39.8678C54.6348 40.0116 54.5524 40.1531 54.4687 40.2937C54.4353 40.3493 54.4025 40.4053 54.3685 40.4602C54.2772 40.6083 54.1834 40.7549 54.0869 40.8991C54.0269 40.9888 53.9641 41.0766 53.902 41.1649C53.8493 41.2398 53.7968 41.3149 53.7428 41.3886C53.6727 41.4839 53.6013 41.5782 53.5287 41.672C53.4794 41.7357 53.4297 41.7989 53.3795 41.8618C53.3028 41.9577 53.2254 42.0531 53.1465 42.1469C53.0974 42.2051 53.047 42.2621 52.997 42.3194C52.9149 42.4136 52.8329 42.5081 52.7485 42.6001C52.6983 42.6546 52.6463 42.7071 52.5952 42.7609C52.4578 42.9059 52.3172 43.0476 52.1739 43.1865C52.0888 43.2689 52.0041 43.3515 51.9169 43.4316C51.8567 43.4871 51.7949 43.5409 51.7335 43.5955C51.6335 43.6842 51.5329 43.7721 51.4304 43.8579C51.3784 43.9015 51.3259 43.9446 51.2732 43.9875C51.1493 44.0884 51.0238 44.1872 50.8962 44.2839C50.8615 44.3102 50.8273 44.3369 50.7924 44.3629C48.4739 46.0865 45.6041 47.1081 42.4997 47.1081C39.395 47.1081 36.5247 46.0862 34.2062 44.3622C34.172 44.3367 34.1385 44.3104 34.1045 44.2846C33.9765 44.1876 33.8503 44.0881 33.7259 43.9868C33.6736 43.9442 33.6214 43.9015 33.5698 43.8581C33.4669 43.7719 33.366 43.6835 33.2656 43.5946C33.2047 43.5402 33.1431 43.4868 33.0831 43.4316C32.9957 43.3513 32.9108 43.2685 32.8254 43.1861C32.6814 43.0466 32.5406 42.9045 32.4028 42.7591C32.3524 42.7059 32.3008 42.6541 32.2513 42.6003C32.1666 42.5081 32.0847 42.4134 32.0025 42.3192C31.9526 42.2619 31.9024 42.2051 31.8533 42.1469C31.7741 42.0531 31.697 41.9577 31.6203 41.8621C31.5701 41.7991 31.5201 41.7359 31.4708 41.672C31.3985 41.5784 31.3271 41.4842 31.257 41.3888C31.2029 41.3149 31.1502 41.2395 31.0975 41.1645C31.0354 41.0764 30.9729 40.9888 30.9131 40.8993C30.8161 40.7544 30.7219 40.6074 30.6304 40.4589C30.5968 40.4043 30.5644 40.3493 30.5316 40.2944C30.4465 40.1517 30.3632 40.0084 30.2831 39.8626C30.2536 39.809 30.2258 39.7544 30.1968 39.7006C30.1247 39.565 30.0542 39.4283 29.9864 39.2903C29.9622 39.2412 29.9387 39.1917 29.9152 39.1424C29.9116 39.1349 29.9081 39.1273 29.9047 39.1198C29.8415 38.9865 29.781 38.8519 29.7219 38.7161C29.6939 38.6516 29.6653 38.5872 29.6384 38.5224C29.5722 38.3636 29.509 38.2034 29.4485 38.0418C29.4159 37.9546 29.3858 37.8665 29.355 37.7787C29.3233 37.6886 29.2927 37.5977 29.2628 37.5067C29.2306 37.4081 29.1982 37.3095 29.1681 37.2105C29.1231 37.0624 29.0807 36.9134 29.0407 36.7634C29.0127 36.6582 28.9874 36.5521 28.9616 36.4462C28.9415 36.3629 28.9221 36.2797 28.9036 36.1959C28.8808 36.0932 28.8577 35.9908 28.8372 35.8876C28.8055 35.727 28.7765 35.5654 28.7505 35.4029C28.7363 35.3153 28.724 35.2274 28.7115 35.1398C28.693 35.01 28.6763 34.8794 28.6615 34.7484C28.6542 34.6839 28.6457 34.6193 28.6391 34.5547C28.6202 34.3623 28.6058 34.1686 28.5948 33.9742C28.5917 33.9183 28.5891 33.8624 28.5866 33.8064C28.5773 33.5986 28.5707 33.39 28.5707 33.18C28.5707 32.955 28.577 32.7316 28.5878 32.5091C28.5907 32.4487 28.5958 32.3886 28.5992 32.3284C28.6092 32.1614 28.6213 31.9948 28.6373 31.8291C28.6428 31.7714 28.6494 31.7139 28.6555 31.6564C28.6752 31.477 28.6973 31.2985 28.7238 31.1212C28.7288 31.0868 28.7338 31.0521 28.7393 31.0176C29.5273 25.9836 33.0205 21.8352 37.6806 20.1113ZM10.7443 25.4777C10.7443 17.7974 16.9926 11.5489 24.673 11.5489C28.6809 11.5489 32.4669 13.2935 35.0846 16.2336C29.0079 18.8734 24.796 24.5813 24.1085 31.2495C24.1037 31.2947 24.1003 31.3401 24.0959 31.3855C24.0731 31.623 24.0551 31.8615 24.0414 32.1013C24.0373 32.1744 24.0327 32.2472 24.0293 32.3204C24.0163 32.6059 24.0074 32.8923 24.0074 33.1807C24.0074 33.4719 24.0158 33.7624 24.0295 34.0527C24.035 34.1695 24.0446 34.2852 24.0521 34.4014C24.0633 34.5684 24.0747 34.7354 24.0902 34.902C24.1039 35.0501 24.1208 35.1973 24.1381 35.3445C24.1532 35.4727 24.1692 35.6005 24.187 35.7283C24.2102 35.8961 24.2353 36.0631 24.263 36.2295C24.2796 36.3283 24.2979 36.4268 24.3159 36.5254C24.3501 36.7116 24.385 36.8974 24.4248 37.0815C24.438 37.1422 24.453 37.2025 24.4667 37.263C24.6217 37.9482 24.8141 38.6191 25.0432 39.2734C25.0578 39.3156 25.0706 39.3583 25.0854 39.4003C24.9478 39.4044 24.81 39.4064 24.6726 39.4064C16.9926 39.4062 10.7443 33.1579 10.7443 25.4777ZM21.6533 54.5732C21.6031 54.6524 21.5552 54.7329 21.5059 54.8126C21.4016 54.981 21.2982 55.1498 21.1983 55.3203C21.1423 55.4155 21.0885 55.5113 21.0342 55.6071C20.9443 55.7653 20.8555 55.9239 20.7692 56.0838C20.7149 56.1845 20.6615 56.2856 20.6086 56.3867C20.5255 56.5457 20.4445 56.7057 20.3651 56.8661C20.3151 56.967 20.2654 57.0676 20.217 57.1689C20.1362 57.338 20.0584 57.5085 19.9815 57.6792C19.9397 57.7721 19.8968 57.8643 19.8564 57.9576C19.7675 58.1621 19.6826 58.3681 19.5993 58.5749C19.5749 58.6353 19.5488 58.6951 19.5251 58.7556C19.4194 59.0242 19.3184 59.2946 19.2225 59.5664C19.2006 59.6287 19.181 59.6917 19.1593 59.754C19.0872 59.9635 19.0169 60.1736 18.9505 60.3847C18.9202 60.4817 18.8921 60.5791 18.8629 60.6763C18.8092 60.8552 18.7565 61.0344 18.707 61.2147C18.6776 61.3219 18.6495 61.4294 18.6214 61.5371C18.5763 61.7101 18.5329 61.8835 18.4918 62.0576C18.4656 62.1678 18.44 62.2781 18.4156 62.3885C18.3764 62.5649 18.3396 62.742 18.3042 62.9193C18.283 63.0259 18.2611 63.1324 18.2413 63.2395C18.2054 63.4325 18.1733 63.6265 18.142 63.8207C18.1274 63.912 18.1112 64.0028 18.0975 64.0941C18.0551 64.3793 18.0165 64.6652 17.9841 64.9525C17.9836 64.956 17.9834 64.9594 17.9832 64.9628C17.9537 65.2241 17.9284 65.4858 17.9072 65.7485H4.56397V60.0264C4.56397 52.2088 9.0581 45.1906 16.0989 41.8548C18.6639 43.203 21.5796 43.9704 24.6728 43.9704C25.5673 43.9704 26.4646 43.9042 27.355 43.7732C27.4938 43.9711 27.6348 44.1669 27.7809 44.359C27.8302 44.4236 27.8813 44.4866 27.9315 44.5505C28.0757 44.7349 28.222 44.9172 28.373 45.0959C28.4349 45.1691 28.4983 45.2408 28.5613 45.3131C28.7028 45.4756 28.8466 45.636 28.9935 45.7932C29.0706 45.8761 29.1491 45.9575 29.2276 46.039C29.3621 46.1775 29.4983 46.314 29.6368 46.4484C29.6888 46.4988 29.7379 46.5522 29.7904 46.6022C29.5921 46.722 29.3956 46.8448 29.2009 46.9701C29.1692 46.9904 29.1382 47.0118 29.1067 47.0324C28.912 47.1588 28.7194 47.2879 28.5287 47.4196C28.4627 47.4653 28.397 47.5114 28.3313 47.5574C28.1613 47.6773 27.9931 47.7991 27.8263 47.923C27.7736 47.9623 27.7202 48.0006 27.6679 48.0403C27.4557 48.2007 27.246 48.3641 27.039 48.5312C26.9938 48.5677 26.9495 48.6053 26.9044 48.6423C26.7396 48.7772 26.5764 48.9143 26.4153 49.0535C26.3528 49.1074 26.2907 49.1617 26.2287 49.2162C26.0673 49.3584 25.908 49.5026 25.7504 49.6489C25.7093 49.687 25.6673 49.7244 25.6264 49.763C25.4329 49.9451 25.2424 50.1306 25.0546 50.3193C25.0057 50.3684 24.9581 50.4184 24.9097 50.4677C24.7659 50.6144 24.6237 50.7627 24.4834 50.9131C24.4277 50.9729 24.372 51.0327 24.3168 51.0931C24.1589 51.2657 24.0033 51.4405 23.8501 51.6178C23.8262 51.6456 23.8013 51.6725 23.7774 51.7006C23.6028 51.9044 23.4321 52.1121 23.2637 52.3218C23.2167 52.3802 23.1708 52.4395 23.1245 52.4986C22.9978 52.6595 22.873 52.822 22.7502 52.9861C22.7028 53.0495 22.6551 53.1125 22.6083 53.1764C22.4476 53.3954 22.289 53.6163 22.135 53.8411C21.9696 54.0825 21.8094 54.3269 21.6533 54.5732ZM22.391 73.4516V70.3127V67.7295C22.391 67.4762 22.3958 67.2238 22.4052 66.9721C22.4082 66.8893 22.4148 66.8071 22.4189 66.7245C22.4271 66.5566 22.4349 66.3884 22.4472 66.2211C22.4547 66.1196 22.4661 66.0189 22.4753 65.9176C22.4885 65.7702 22.5004 65.6225 22.5168 65.476C22.5289 65.3688 22.5446 65.2622 22.5583 65.1552C22.5761 65.0158 22.5928 64.8761 22.6133 64.7374C22.63 64.6269 22.6501 64.5174 22.6683 64.4074C22.6907 64.2737 22.7114 64.1395 22.7365 64.0064C22.7578 63.8939 22.7824 63.7826 22.8055 63.6705C22.8319 63.5414 22.8573 63.4118 22.8862 63.2835C22.9118 63.1703 22.941 63.0583 22.9684 62.9455C22.9992 62.82 23.0286 62.6938 23.0617 62.569C23.0918 62.4556 23.1252 62.3433 23.1571 62.2308C23.1918 62.1083 23.2256 61.9855 23.2625 61.8639C23.297 61.7507 23.3349 61.6384 23.3712 61.5259C23.41 61.4066 23.4476 61.287 23.4885 61.1686C23.5272 61.0565 23.569 60.9454 23.6096 60.8343C23.6525 60.717 23.6945 60.5992 23.7395 60.4828C23.7824 60.3722 23.828 60.2628 23.8725 60.1529C23.9193 60.0381 23.9654 59.9226 24.0142 59.8087C24.0615 59.699 24.1112 59.5903 24.1603 59.4817C24.2107 59.3697 24.2607 59.2572 24.3132 59.1463C24.3645 59.0379 24.4184 58.9309 24.4715 58.8234C24.5258 58.7138 24.5795 58.6041 24.6356 58.4957C24.6911 58.3889 24.7488 58.2835 24.8061 58.1778C24.864 58.0708 24.9213 57.9637 24.9811 57.8579C25.0404 57.7529 25.102 57.6495 25.163 57.5457C25.2246 57.4412 25.2857 57.3364 25.3494 57.2328C25.4126 57.1299 25.4779 57.0286 25.5429 56.9268C25.6082 56.8248 25.673 56.7228 25.7401 56.6219C25.8072 56.5211 25.8761 56.4216 25.945 56.3221C26.0137 56.2228 26.0822 56.1236 26.1524 56.0254C26.2232 55.9268 26.296 55.8296 26.3688 55.7322C26.4409 55.6357 26.5128 55.5391 26.5865 55.444C26.6609 55.3479 26.7371 55.2532 26.8133 55.1583C26.8888 55.0643 26.9646 54.9705 27.0417 54.8778C27.1195 54.7847 27.199 54.6928 27.2784 54.601C27.3576 54.5095 27.437 54.418 27.518 54.3276C27.599 54.2373 27.6818 54.1483 27.7644 54.0593C27.847 53.9705 27.9297 53.8822 28.0139 53.795C28.0983 53.7074 28.1843 53.6211 28.2706 53.5351C28.3566 53.4491 28.4431 53.3635 28.5307 53.2788C28.6181 53.1946 28.7069 53.1116 28.7961 53.0287C28.8856 52.9457 28.9755 52.8628 29.0665 52.7811C29.1574 52.6999 29.2491 52.6198 29.3415 52.5402C29.4342 52.4601 29.5275 52.3804 29.6217 52.3019C29.7155 52.2239 29.8102 52.147 29.9056 52.0705C30.0017 51.9934 30.0984 51.9169 30.1961 51.8414C30.2926 51.767 30.3901 51.6935 30.488 51.6205C30.5875 51.5464 30.6877 51.4731 30.789 51.4008C30.888 51.3298 30.988 51.26 31.0886 51.1906C31.1917 51.1196 31.2953 51.0496 31.3999 50.9804C31.5014 50.9133 31.6039 50.8469 31.7068 50.7814C31.8134 50.7137 31.9206 50.6468 32.0285 50.5811C32.1326 50.5176 32.2374 50.4549 32.3428 50.3933C32.4523 50.3291 32.5628 50.2659 32.6739 50.2036C32.7805 50.1438 32.8877 50.0847 32.9957 50.0268C33.1086 49.9661 33.2225 49.9065 33.337 49.8476C33.4457 49.7917 33.5547 49.7367 33.6647 49.6827C33.7512 49.6402 33.8386 49.5991 33.926 49.5578C36.4907 50.906 39.4069 51.6732 42.4999 51.6732C45.5931 51.6732 48.509 50.906 51.0738 49.5578C51.1605 49.5989 51.2472 49.6398 51.333 49.6817C51.4443 49.7365 51.5546 49.7922 51.6646 49.8486C51.7777 49.9067 51.8905 49.9656 52.0023 50.0256C52.1114 50.0843 52.2198 50.1441 52.3275 50.2045C52.4372 50.2662 52.5463 50.3285 52.6545 50.3919C52.7615 50.4544 52.8676 50.5181 52.973 50.5824C53.0796 50.6475 53.1853 50.7132 53.2902 50.7801C53.3948 50.8465 53.4984 50.9136 53.6013 50.9818C53.7047 51.05 53.8071 51.1194 53.9089 51.1895C54.0104 51.2595 54.1115 51.33 54.2117 51.4017C54.3119 51.4733 54.4109 51.5459 54.5095 51.6194C54.6085 51.6929 54.7069 51.767 54.8043 51.8423C54.9011 51.9172 54.9969 51.9929 55.0923 52.0694C55.1882 52.1463 55.2836 52.2236 55.378 52.3021C55.4718 52.3802 55.5645 52.4594 55.6567 52.539C55.7495 52.6191 55.842 52.6997 55.9332 52.7816C56.0236 52.8626 56.1128 52.9448 56.2016 53.0271C56.2915 53.1107 56.3812 53.1946 56.4695 53.2797C56.5564 53.3635 56.642 53.4484 56.7271 53.5335C56.8139 53.6202 56.9006 53.7072 56.9857 53.7952C57.0692 53.882 57.1516 53.9696 57.2335 54.0577C57.317 54.1474 57.4003 54.2373 57.482 54.3283C57.5623 54.4178 57.6411 54.5084 57.7196 54.5992C57.7997 54.6916 57.8798 54.7843 57.958 54.8783C58.0349 54.9702 58.11 55.0636 58.1851 55.1569C58.2618 55.2523 58.3384 55.3475 58.4133 55.4442C58.4868 55.5389 58.5582 55.635 58.6299 55.7311C58.7029 55.8287 58.7759 55.9266 58.8471 56.0257C58.9172 56.1231 58.9854 56.2221 59.0536 56.3209C59.1228 56.4209 59.1921 56.5208 59.2595 56.6222C59.3261 56.7223 59.3904 56.8237 59.4552 56.925C59.5207 57.0274 59.5865 57.1297 59.6501 57.2333C59.7131 57.3357 59.7738 57.4398 59.835 57.5434C59.8966 57.6479 59.9587 57.7522 60.0182 57.8579C60.0778 57.9633 60.1348 58.0701 60.1926 58.1764C60.2501 58.2825 60.308 58.3884 60.3635 58.4954C60.4196 58.6036 60.473 58.7134 60.5273 58.8227C60.5805 58.9302 60.6346 59.0374 60.6859 59.146C60.7384 59.2569 60.7882 59.369 60.8384 59.4808C60.8877 59.5901 60.9376 59.6987 60.9849 59.809C61.0335 59.9219 61.0789 60.0362 61.1254 60.1503C61.1706 60.2613 61.2167 60.3717 61.2598 60.4835C61.3046 60.5992 61.3463 60.7163 61.389 60.8331C61.4298 60.9447 61.4716 61.0558 61.5104 61.1683C61.5515 61.2872 61.5894 61.4075 61.6282 61.5273C61.6644 61.6393 61.7021 61.7509 61.7363 61.8639C61.7735 61.9855 61.8071 62.1085 61.842 62.2311C61.8739 62.3436 61.9072 62.4556 61.9374 62.569C61.9705 62.6938 61.9999 62.8198 62.0307 62.9455C62.0583 63.058 62.0873 63.1703 62.1128 63.2835C62.1418 63.4118 62.1669 63.5411 62.1936 63.6701C62.2167 63.7821 62.2413 63.8937 62.2625 64.0064C62.2874 64.1383 62.308 64.2714 62.3303 64.4042C62.3488 64.5153 62.3693 64.6258 62.386 64.7376C62.4065 64.8752 62.423 65.0139 62.4408 65.1522C62.4547 65.2602 62.4707 65.3674 62.4828 65.4758C62.4992 65.6223 62.5111 65.77 62.5243 65.9174C62.5334 66.0187 62.5448 66.1193 62.5524 66.2209C62.5649 66.3881 62.5724 66.5566 62.5807 66.7247C62.5848 66.8071 62.5914 66.8893 62.5943 66.9719C62.6037 67.2236 62.6085 67.476 62.6085 67.7293V70.3122V73.4516H22.391ZM67.0937 65.7485C67.049 65.1926 66.9847 64.6401 66.903 64.0911C66.8899 64.0042 66.8744 63.9179 66.8605 63.8312C66.8288 63.6324 66.7957 63.4341 66.759 63.2365C66.7396 63.1324 66.7183 63.0288 66.6976 62.925C66.6618 62.7445 66.6243 62.5645 66.5844 62.3851C66.5602 62.2769 66.5351 62.1688 66.5095 62.061C66.4678 61.8849 66.424 61.7094 66.3783 61.5344C66.3507 61.4283 66.3231 61.3224 66.2939 61.2165C66.2439 61.0344 66.1905 60.8532 66.1362 60.6722C66.1075 60.5768 66.0801 60.4812 66.0502 60.3861C65.9829 60.1718 65.9117 59.9587 65.8384 59.746C65.8179 59.6866 65.7992 59.6266 65.7782 59.5673C65.6819 59.2946 65.5808 59.0235 65.4747 58.754C65.4518 58.6963 65.427 58.6392 65.4037 58.5815C65.3195 58.3722 65.2332 58.1634 65.1431 57.9562C65.1032 57.8643 65.0609 57.7734 65.0199 57.6819C64.9423 57.5094 64.8638 57.3376 64.7821 57.1669C64.7344 57.0669 64.6851 56.9677 64.636 56.8684C64.5559 56.7064 64.474 56.545 64.3903 56.3846C64.3378 56.2842 64.2851 56.1843 64.2312 56.0845C64.1445 55.9241 64.0555 55.7648 63.9651 55.606C63.9108 55.5106 63.8572 55.4152 63.8017 55.3205C63.7013 55.1491 63.5975 54.9796 63.4925 54.8103C63.4437 54.7313 63.3962 54.6517 63.3465 54.5734C63.1902 54.3272 63.03 54.0828 62.8643 53.8411C62.71 53.6161 62.5514 53.3952 62.3908 53.1761C62.3442 53.1127 62.2968 53.05 62.2498 52.987C62.1263 52.822 62.001 52.659 61.8739 52.4975C61.8281 52.4393 61.7826 52.3804 61.7361 52.3227C61.5675 52.1123 61.3961 51.9042 61.221 51.6999C61.1982 51.6735 61.1747 51.6477 61.1519 51.6212C60.9976 51.4425 60.8406 51.2664 60.6816 51.0925C60.6268 51.0327 60.5718 50.9736 60.5166 50.9142C60.3756 50.7629 60.2325 50.6135 60.0878 50.4661C60.0401 50.4175 59.9933 50.3684 59.9452 50.3202C59.7569 50.1313 59.5657 49.9451 59.3717 49.7625C59.3318 49.7249 59.2907 49.6884 59.2506 49.6509C59.092 49.5038 58.9318 49.3588 58.7697 49.216C58.7081 49.1617 58.6461 49.1078 58.584 49.054C58.4224 48.9145 58.2593 48.7774 58.0943 48.6423C58.0493 48.6056 58.0053 48.5679 57.9601 48.5314C57.7533 48.3644 57.5436 48.201 57.3316 48.0408C57.2787 48.0008 57.2248 47.962 57.1717 47.9226C57.0055 47.7993 56.8383 47.6779 56.6689 47.5588C56.6025 47.512 56.5361 47.4655 56.4695 47.4194C56.2806 47.2891 56.09 47.1613 55.8974 47.0362C55.8636 47.0143 55.8305 46.9915 55.7968 46.9698C55.6023 46.845 55.4066 46.7225 55.2085 46.6029C55.2596 46.5543 55.3075 46.5025 55.358 46.4532C55.4994 46.3163 55.6384 46.1771 55.7753 46.0356C55.8518 45.9566 55.9278 45.8775 56.0026 45.7971C56.1521 45.6374 56.2977 45.4745 56.4414 45.3095C56.5026 45.2394 56.564 45.1698 56.624 45.0986C56.7771 44.9174 56.9259 44.7324 57.0722 44.545C57.1201 44.4838 57.1692 44.4236 57.2162 44.3618C57.3629 44.1689 57.5046 43.9722 57.644 43.7737C58.5345 43.9044 59.4317 43.9706 60.3263 43.9706C63.4195 43.9706 66.3354 43.2034 68.9002 41.855C75.9412 45.1908 80.4351 52.209 80.4351 60.0267V65.7485H67.0937Z" fill="#DEB64F"/>
</g>
<defs>
<clipPath id="clip0_53103_82">
<rect width="85" height="85" fill="white"/>
</clipPath>
</defs>
</svg>
