<svg width="20" height="20" viewBox="0 0 20 20" fill="none" xmlns="http://www.w3.org/2000/svg">
<g clip-path="url(#clip0_53069_936)">
<path opacity="0.996" fill-rule="evenodd" clip-rule="evenodd" d="M19.9805 8.65235C19.9805 8.8216 19.9805 8.9909 19.9805 9.16016C19.6841 9.55469 19.3781 9.94531 19.0625 10.332C18.8919 10.6422 18.8528 10.9677 18.9453 11.3086C19.1307 11.6923 19.326 12.0699 19.5312 12.4414C19.6568 12.795 19.5852 13.1011 19.3164 13.3594C18.9258 13.5547 18.5352 13.75 18.1445 13.9453C17.8776 14.1345 17.7018 14.3884 17.6172 14.707C17.6004 15.1043 17.6069 15.5014 17.6367 15.8984C17.7213 16.3547 17.552 16.6672 17.1289 16.8359C16.6871 16.8755 16.2443 16.9016 15.8008 16.9141C15.3969 16.9929 15.0909 17.2077 14.8828 17.5586C14.7266 17.9753 14.5703 18.3919 14.4141 18.8086C14.1714 19.1104 13.8654 19.208 13.4961 19.1016C13.0876 18.9234 12.6709 18.7671 12.2461 18.6328C11.893 18.6008 11.5805 18.6984 11.3086 18.9258C11.0292 19.2247 10.7428 19.5177 10.4492 19.8047C10.1367 19.987 9.82422 19.987 9.51172 19.8047C9.21816 19.5177 8.93172 19.2247 8.65234 18.9258C8.38047 18.6984 8.06797 18.6008 7.71484 18.6328C7.29 18.7671 6.87332 18.9234 6.46484 19.1016C6.09555 19.208 5.78957 19.1104 5.54688 18.8086C5.39062 18.3919 5.23438 17.9753 5.07812 17.5586C4.87 17.2077 4.56402 16.9929 4.16016 16.9141C3.71659 16.9016 3.27389 16.8755 2.83203 16.8359C2.40897 16.6672 2.2397 16.3547 2.32422 15.8984C2.35403 15.5014 2.36054 15.1043 2.34375 14.707C2.25912 14.3884 2.08334 14.1345 1.81641 13.9453C1.42578 13.75 1.03516 13.5547 0.644531 13.3594C0.375701 13.1011 0.304086 12.795 0.429688 12.4414C0.634969 12.0699 0.830281 11.6923 1.01562 11.3086C1.10811 10.9677 1.06904 10.6422 0.898438 10.332C0.582867 9.94531 0.276877 9.55469 -0.0195312 9.16016C-0.0195312 8.9909 -0.0195312 8.8216 -0.0195312 8.65235C0.0487523 8.53785 0.126877 8.42719 0.214844 8.32031C0.584266 8.04211 0.94234 7.74914 1.28906 7.44141C1.47612 7.15383 1.54123 6.84133 1.48438 6.50391C1.36559 6.08254 1.25492 5.65934 1.15234 5.23438C1.16264 4.90094 1.31889 4.66656 1.62109 4.53125C2.03776 4.41406 2.45443 4.29688 2.87109 4.17969C3.23874 4.00746 3.47962 3.72751 3.59375 3.33985C3.65522 2.92255 3.72033 2.50589 3.78906 2.08985C3.9234 1.7718 4.1643 1.60253 4.51172 1.58203C4.95211 1.66411 5.3948 1.72922 5.83984 1.77735C6.18137 1.77858 6.47434 1.66139 6.71875 1.42578C6.95312 1.0612 7.1875 0.696615 7.42188 0.332033C7.76438 -0.0294485 8.14848 -0.0750213 8.57422 0.195314C8.88672 0.403646 9.19922 0.611982 9.51172 0.820314C9.85598 0.956322 10.1945 0.943299 10.5273 0.781252C10.9048 0.514334 11.2954 0.266939 11.6992 0.0390642C12.0434 -0.0415596 12.3233 0.0560966 12.5391 0.332033C12.7734 0.696615 13.0078 1.0612 13.2422 1.42578C13.4866 1.66139 13.7796 1.77858 14.1211 1.77735C14.5661 1.72922 15.0088 1.66411 15.4492 1.58203C15.7966 1.60253 16.0375 1.7718 16.1719 2.08985C16.2406 2.50589 16.3057 2.92255 16.3672 3.33985C16.4642 3.68445 16.666 3.95137 16.9727 4.14063C17.3972 4.27606 17.8269 4.39324 18.2617 4.49219C18.6089 4.61809 18.7913 4.86547 18.8086 5.23438C18.7132 5.66133 18.6026 6.08453 18.4766 6.50391C18.4197 6.84133 18.4848 7.15383 18.6719 7.44141C19.0186 7.74914 19.3767 8.04211 19.7461 8.32031C19.8341 8.42719 19.9122 8.53785 19.9805 8.65235Z" fill="#90DDA8"/>
<path fill-rule="evenodd" clip-rule="evenodd" d="M9.27727 3.5351C12.054 3.37708 14.1699 4.47085 15.6249 6.81635C16.8663 9.26764 16.71 11.6244 15.1562 13.8867C13.6836 15.7281 11.763 16.581 9.39445 16.4453C7.10887 16.1592 5.39664 15.0198 4.25773 13.0273C3.21681 10.9423 3.24285 8.87198 4.33586 6.81635C5.46629 4.94573 7.11344 3.85196 9.27727 3.5351Z" fill="#71BF8C"/>
<path fill-rule="evenodd" clip-rule="evenodd" d="M12.7148 7.44139C12.7559 7.43557 12.795 7.44206 12.832 7.46093C13.0859 7.71483 13.3398 7.96874 13.5938 8.22264C13.6198 8.26171 13.6198 8.30077 13.5938 8.33983C12.0508 9.8828 10.5078 11.4258 8.96484 12.9687C8.92578 12.9948 8.88672 12.9948 8.84766 12.9687C8.00129 12.1224 7.15496 11.276 6.30859 10.4297C6.5891 10.1426 6.87555 9.86268 7.16797 9.58983C7.7409 10.1497 8.31379 10.7096 8.88672 11.2695C10.1766 10.0057 11.4527 8.72964 12.7148 7.44139Z" fill="#FCFEFD"/>
</g>
<defs>
<clipPath id="clip0_53069_936">
<rect width="20" height="20" fill="white"/>
</clipPath>
</defs>
</svg>
