<svg width="60" height="60" viewBox="0 0 60 60" fill="none" xmlns="http://www.w3.org/2000/svg">
<g clip-path="url(#clip0_53062_284)">
<path d="M0.339844 0.339844L0 0.679688V10.8281V20.9766H0.996094H1.99219V11.4844V1.99219H30H58.0078V13.0078V24.0234H40.4883H22.9688V25.0195V26.0156L41.2031 25.9922L59.4375 25.957L59.7188 25.6289L60 25.3008V12.9961V0.679688L59.6602 0.339844L59.3203 0H30H0.679688L0.339844 0.339844Z" fill="black"/>
<path d="M14.3555 4.05469C12.8906 4.40625 12.2695 4.71094 11.4492 5.53125C9.87891 7.10156 9.57422 9.90234 10.793 11.6133C11.0625 11.9883 10.9922 12.0703 10.3828 12.0703C8.69531 12.082 6.49219 13.3711 5.40234 14.9883C4.76953 15.9258 4.60547 16.4062 3.10547 21.6094C1.62891 26.7422 1.57031 27.0703 2.03906 28.0781C2.55469 29.1914 3.76172 30 4.92188 30C5.64844 30 6.62109 29.5781 7.17188 29.0156C7.72266 28.4648 7.85156 28.1836 8.51953 26.0742L8.96484 24.668L9 31.7461C9.01172 35.6367 9.01172 38.8477 8.98828 38.8711C8.96484 38.8945 8.63672 38.7539 8.25 38.5547C7.24219 38.0391 6.41016 37.8984 5.33203 38.0508C3.64453 38.2969 2.21484 39.3398 1.48828 40.8633C1.13672 41.6133 1.11328 41.7422 1.11328 42.9492C1.11328 44.1094 1.14844 44.3086 1.42969 44.918C1.60547 45.293 1.92188 45.8203 2.13281 46.0898C2.36719 46.3711 2.46094 46.582 2.37891 46.6055C2.10938 46.6992 1.28906 47.4023 0.984375 47.8125C0.820312 48.0352 0.539062 48.5156 0.363281 48.8672L0.0585938 49.5117L0.0234375 54.4102L-0.0117188 59.3086L0.339844 59.6484L0.679688 60H5.91797C11.5547 60 11.7539 59.9766 11.8945 59.3789C11.9297 59.2383 11.9531 56.9297 11.9297 54.2578L11.8945 49.3945L11.5898 48.75C11.4258 48.3984 11.0625 47.8594 10.793 47.543L10.2891 46.9922H14.0039H17.7305L17.2266 47.5312C16.957 47.8242 16.5938 48.3633 16.4297 48.7266L16.1133 49.3945L16.0781 54.2578C16.0547 56.9297 16.0781 59.2383 16.1133 59.3789C16.2539 59.9766 16.4531 60 22.0898 60H27.3281L27.668 59.6602L28.0078 59.3203V54.6914C28.0078 49.4531 27.9609 49.1016 27.0938 47.9414C26.6719 47.3906 25.9336 46.7109 25.6289 46.6055C25.5469 46.582 25.6289 46.3828 25.8516 46.1016C27.0938 44.5312 27.3164 42.3984 26.4258 40.6523C25.5703 38.9883 23.6016 37.875 21.7148 37.9922L20.9766 38.0391V27.832V17.6133L25.8867 15.0703C28.7578 13.582 30.9492 12.375 31.1719 12.1523C32.4609 10.8984 32.4141 8.68359 31.0898 7.48828C30.4102 6.87891 29.7188 6.64453 28.7461 6.70312C27.9727 6.73828 27.8203 6.80859 23.8125 8.89453C21.5391 10.0781 19.6406 11.0156 19.6172 10.9805C19.582 10.9453 19.6055 10.8164 19.6758 10.6875C19.7344 10.5703 19.8398 10.1484 19.9102 9.75C20.2969 7.37109 18.8086 4.99219 16.4648 4.25391C15.9375 4.08984 14.707 3.97266 14.3555 4.05469ZM16.4531 6.42188C17.7422 7.125 18.3164 8.76562 17.7539 10.1719C17.5078 10.7812 16.5469 11.6719 15.9609 11.8359C14.8477 12.1406 13.8398 11.918 13.0312 11.1914C12.3398 10.5703 12.0469 9.92578 12.0469 9.02344C12.0469 7.61719 12.9727 6.43359 14.332 6.08203C14.918 5.94141 15.8203 6.08203 16.4531 6.42188ZM29.7773 9.01172C30.1992 9.43359 30.2461 10.125 29.8828 10.5703C29.7539 10.7461 27.5742 11.9414 24.4922 13.5469C20.4023 15.668 19.2773 16.3008 19.1484 16.5469C19.0078 16.8164 18.9844 18.668 18.9844 27.9023V38.9414L18.4102 39.5508C17.1211 40.9102 16.6758 42.832 17.2734 44.4961L17.4492 45H16.7578H16.0547V36.5039V28.0078H15H13.9453V36.5039V45H12.2461H10.5586L10.7578 44.4961C10.9453 44.0391 10.957 42.9375 10.9922 30.9375C11.0156 20.5078 10.9805 17.8125 10.8633 17.5781C10.5586 16.9805 9.73828 16.8516 9.29297 17.332C9.17578 17.4609 8.42578 19.6641 7.62891 22.2305C6.82031 24.7969 6.09375 27.0586 5.98828 27.2695C5.77734 27.7383 5.16797 28.0547 4.6875 27.9492C4.25391 27.8555 3.75 27.2695 3.75 26.8711C3.75 26.3203 6.45703 17.1914 6.83203 16.4883C7.5 15.2109 8.85938 14.2852 10.3945 14.0625C10.8281 14.0039 12.832 13.9453 14.8242 13.9453L18.457 13.9336L23.4961 11.3086C29.0625 8.40234 29.1328 8.37891 29.7773 9.01172ZM7.06641 40.1953C8.98828 40.9219 9.59766 43.3828 8.22656 44.9062C6.36328 46.9805 3.05859 45.7266 3.04688 42.9375C3.04688 40.8516 5.07422 39.457 7.06641 40.1953ZM23.25 40.2539C24.3047 40.7578 24.9492 41.7773 24.9609 42.9492C24.9609 44.6953 23.5781 46.0312 21.8672 45.9141C18.4922 45.6914 17.9766 41.1211 21.2109 40.0664C21.668 39.9141 22.7461 40.0078 23.25 40.2539ZM8.49609 48.2695C9.02344 48.5039 9.5625 49.0781 9.80859 49.6523C9.92578 49.9453 9.96094 50.9414 9.96094 54.0234V58.0078H5.97656H1.99219V54.1641C1.99219 52.0195 2.03906 50.1562 2.10938 49.9336C2.29688 49.2539 2.80078 48.6562 3.43359 48.3398C4.00781 48.0586 4.125 48.0469 6.02344 48.0469C7.71094 48.0469 8.09766 48.082 8.49609 48.2695ZM24.5625 48.3398C24.8906 48.5039 25.2656 48.7969 25.418 48.9844C25.9805 49.7578 26.0156 50.0391 26.0156 54.1523V58.0078H22.0312H18.0469V54.0234C18.0469 49.6758 18.0703 49.5234 18.7266 48.8203C19.3594 48.1523 19.7695 48.0469 21.9844 48.0469C23.8828 48.0469 24.0117 48.0586 24.5625 48.3398Z" fill="black"/>
<path d="M33.0469 6.03516V7.03125H43.0078H52.9688V6.03516V5.03906H43.0078H33.0469V6.03516Z" fill="black"/>
<path d="M35.9766 12.0117V13.0078H45.9961H56.0156V12.0117V11.0156H45.9961H35.9766V12.0117Z" fill="black"/>
<path d="M31.9922 17.9883V18.9844H42.0117H52.0312V17.9883V16.9922H42.0117H31.9922V17.9883Z" fill="black"/>
<path d="M36.5625 38.1914C35.6016 38.4961 35.2148 38.7305 34.5117 39.4336C33.5039 40.4531 33.0469 41.5312 33.0469 42.9492C33.0469 44.1562 33.3867 45.1523 34.1484 46.1016C34.3711 46.3828 34.4531 46.582 34.3711 46.6055C34.0664 46.7109 33.3281 47.3906 32.9063 47.9414C32.0391 49.1016 31.9922 49.4531 31.9922 54.6914V59.3203L32.332 59.6602L32.6719 60H37.9102C43.5469 60 43.7461 59.9766 43.8867 59.3789C43.9219 59.2383 43.9453 56.9297 43.9219 54.2578L43.8867 49.3945L43.582 48.7383C43.2305 47.9883 42.5859 47.2266 42 46.8633C41.5313 46.5703 41.5078 46.418 41.8828 46.0664C42.6211 45.375 43.125 43.4883 42.9141 42.2109C42.4102 39.2109 39.3633 37.2891 36.5625 38.1914ZM39.3281 40.2891C40.3945 40.8281 41.1328 42.1992 40.9688 43.2773C40.7227 44.8242 39.6563 45.8086 38.1328 45.9141C36.4453 46.0312 35.0391 44.6953 35.0391 42.9844C35.0391 41.6367 35.7422 40.6523 37.0898 40.1133C37.5938 39.9023 38.7656 39.9961 39.3281 40.2891ZM40.4883 48.2695C40.7461 48.3867 41.0977 48.6328 41.2734 48.8203C41.9297 49.5234 41.9531 49.6758 41.9531 54.0234V58.0078H37.9688H33.9844V54.1523C33.9844 50.0391 34.0195 49.7578 34.582 48.9844C34.7344 48.7969 35.1094 48.5039 35.4375 48.3398C35.9883 48.0586 36.1172 48.0469 38.0156 48.0469C39.7148 48.0469 40.0898 48.082 40.4883 48.2695Z" fill="black"/>
<path d="M52.7226 38.1328C50.871 38.6484 49.4062 40.2656 49.0898 42.1523C48.8788 43.4297 49.2304 44.8828 49.9921 45.8789C50.2148 46.1719 50.3905 46.4531 50.3905 46.5117C50.3905 46.5586 50.1913 46.7461 49.9335 46.9102C49.3593 47.2969 48.7148 48.082 48.3749 48.8203C48.1054 49.3828 48.1054 49.4883 48.0702 54.2578C48.0468 56.9297 48.0702 59.2383 48.1054 59.3789C48.246 59.9766 48.4452 60 54.0819 60H59.3202L59.6601 59.6484L60.0116 59.3086L59.9765 54.4102L59.9413 49.5117L59.6366 48.8672C59.4609 48.5156 59.1796 48.0352 59.0155 47.8125C58.7109 47.4023 57.8905 46.6992 57.621 46.6055C57.539 46.582 57.6327 46.3711 57.8671 46.0898C58.078 45.8203 58.3944 45.293 58.5702 44.918C58.8515 44.3086 58.8866 44.1094 58.8866 42.9492C58.8866 41.7539 58.8632 41.6133 58.5234 40.8984C58.3241 40.4766 57.9491 39.9023 57.6913 39.6094C56.496 38.2734 54.4335 37.6641 52.7226 38.1328ZM54.9257 40.1133C56.1679 40.5703 56.953 41.6719 56.953 42.9375C56.9413 45.7266 53.6366 46.9805 51.7734 44.9063C50.414 43.3945 50.9999 40.9453 52.9218 40.1953C53.5663 39.9492 54.3632 39.9141 54.9257 40.1133ZM56.5663 48.3398C57.1991 48.6563 57.703 49.2539 57.8905 49.9336C57.9609 50.1563 58.0077 52.0195 58.0077 54.1641V58.0078H54.0234H50.039V54.0234C50.039 49.7109 50.0507 49.6406 50.6952 48.8789C51.2929 48.1641 51.7148 48.0469 53.9765 48.0469C55.8749 48.0469 55.9921 48.0586 56.5663 48.3398Z" fill="black"/>
</g>
<defs>
<clipPath id="clip0_53062_284">
<rect width="60" height="60" fill="white"/>
</clipPath>
</defs>
</svg>
