<svg width="60" height="61" viewBox="0 0 60 61" fill="none" xmlns="http://www.w3.org/2000/svg">
<path d="M38.5298 0.548672C37.7543 0.942842 37.3349 1.66761 37.0552 3.079C36.8391 4.22337 36.8264 4.23608 36.3306 4.49039L35.8221 4.74469L34.856 4.10893C34.3094 3.76562 33.712 3.40959 33.5213 3.34602C32.962 3.12986 32.0721 3.18072 31.551 3.44774C30.9789 3.7529 28.4493 6.29595 28.1696 6.85542C27.9026 7.37674 27.9154 8.44482 28.1696 8.96614C28.284 9.1823 28.6399 9.75449 28.945 10.2122L29.5171 11.0642L29.2501 11.5728C28.9959 12.0687 28.9832 12.0814 27.8391 12.2975C26.4154 12.5773 25.6908 12.9969 25.3094 13.7852C25.0679 14.2938 25.0425 14.5608 25.0425 16.5444C25.0425 18.4898 25.0679 18.7823 25.2967 19.24C25.7162 20.0411 26.3772 20.4353 27.7882 20.7023L29.0086 20.9312L29.2501 21.4779L29.4916 22.0374L28.7671 23.1182C28.1696 24.0082 28.0425 24.3134 27.9916 24.8729C27.9026 25.9537 28.1188 26.3605 29.5298 27.8355C31.8052 30.1878 32.6315 30.3786 34.7162 29.0053L35.7459 28.3314L36.2671 28.5349L36.801 28.7256L37.0806 30.0352C37.4111 31.5229 37.7162 32.0442 38.5552 32.4766C39.0255 32.7309 39.3306 32.769 40.9577 32.8072C43.2713 32.8707 43.9832 32.7054 44.6569 31.9552C45.1272 31.4339 45.2543 31.0779 45.5213 29.6156C45.6738 28.8019 45.712 28.7383 46.1188 28.5603C46.7543 28.306 46.8306 28.3187 47.8476 29.0053C49.2077 29.9335 49.9959 30.0607 51.0382 29.5648C51.5213 29.3232 53.9747 26.92 54.2416 26.4114C54.8137 25.3433 54.6738 24.4533 53.7204 23.0164L53.034 21.9865L53.2374 21.5288C53.3518 21.2745 53.4535 21.0456 53.4789 21.0202C53.4916 20.9947 54.0255 20.8676 54.6611 20.7404C56.034 20.4607 56.4154 20.27 56.9365 19.6469C57.4832 18.9857 57.623 18.1847 57.5594 16.0994C57.5213 14.5735 57.4704 14.2557 57.2289 13.7852C56.8221 13.0096 56.0594 12.5645 54.6484 12.2975L53.4916 12.0687L53.2628 11.5473L53.0467 11.026L53.6696 10.1105C54.4069 9.00429 54.5594 8.64826 54.5594 7.94893C54.5594 6.94442 54.3433 6.62654 52.6399 4.94813C50.8857 3.21887 50.6696 3.10443 49.5001 3.2443C49.0806 3.28244 48.6357 3.4986 47.8476 4.01992L46.7671 4.74469L46.2332 4.5031L45.6993 4.26151L45.4832 3.14257C45.2162 1.75662 44.9365 1.20986 44.2501 0.726685L43.7035 0.345226L41.4026 0.307083C39.2289 0.281651 39.051 0.294369 38.5298 0.548672ZM42.8518 2.93913C42.8899 2.97728 43.0552 3.63847 43.2077 4.41409C43.5255 6.07979 43.6018 6.1688 45.1908 6.82999C46.9704 7.56747 47.0086 7.56747 48.5213 6.5884C49.2332 6.13065 49.856 5.74919 49.8942 5.74919C49.9323 5.74919 50.4408 6.24509 51.0255 6.85542L52.0806 7.96164L51.2035 9.28402C50.7332 10.0088 50.3391 10.7208 50.3391 10.848C50.3391 10.9879 50.5679 11.6236 50.8476 12.2848C51.1272 12.9333 51.356 13.5309 51.356 13.6072C51.356 13.6835 51.5213 13.8742 51.7247 14.0522C52.0043 14.2811 52.4747 14.4337 53.5679 14.6498L55.0425 14.9423V16.5063C55.0425 17.8795 55.0171 18.0702 54.8264 18.1338C54.6993 18.172 54.0891 18.2991 53.4535 18.4135C52.0425 18.6806 51.6484 18.8713 51.4196 19.3926C50.3899 21.7322 50.3137 21.9484 50.3899 22.279C50.4281 22.4824 50.8221 23.2072 51.2798 23.9065L52.0933 25.1653L51.051 26.208C50.4789 26.7674 49.945 27.2379 49.8688 27.2379C49.7798 27.2379 49.1823 26.8946 48.5467 26.475C47.9111 26.0554 47.2501 25.6739 47.0721 25.6358C46.8815 25.5849 46.5001 25.6739 46.0425 25.8774C45.6484 26.0554 45.0001 26.3224 44.606 26.475C44.212 26.6149 43.8052 26.831 43.6908 26.9582C43.5764 27.0853 43.3349 27.8864 43.1442 28.7383L42.801 30.2895H41.2374H39.6738L39.534 29.5521C39.445 29.1579 39.3052 28.4713 39.2162 28.0262C39.0382 27.1489 38.695 26.6784 38.1611 26.5386C37.9704 26.5004 37.3857 26.2588 36.8518 26.0172C36.3179 25.7757 35.7713 25.5849 35.6315 25.5849C35.4916 25.5849 34.8052 25.9409 34.1188 26.386C33.4196 26.831 32.784 27.2252 32.7077 27.276C32.6315 27.3269 32.123 26.8819 31.5255 26.2207L30.4832 25.0763L31.3221 23.7921C32.2628 22.3425 32.3137 22.0755 31.856 21.16C31.6908 20.8294 31.462 20.27 31.3476 19.9139C31.0298 18.9349 30.7755 18.7696 29.0721 18.4008C28.2586 18.2228 27.5467 18.0829 27.5086 18.0829C27.4323 18.0829 27.5594 15.0186 27.6357 14.9423C27.6484 14.9169 28.2586 14.7897 28.9959 14.6371C29.7204 14.4845 30.4704 14.2938 30.6484 14.2048C30.8899 14.0777 31.1188 13.6962 31.5255 12.7171C32.3264 10.7844 32.3264 10.7971 31.4365 9.41117C31.0171 8.7627 30.6357 8.15237 30.5721 8.05065C30.5086 7.93621 30.801 7.55475 31.5382 6.81727C32.123 6.23237 32.6442 5.74919 32.695 5.74919C32.7586 5.74919 33.3688 6.13065 34.0679 6.5884C35.5425 7.58018 35.5171 7.58018 37.4747 6.76641C39.0001 6.11793 39.0001 6.13065 39.4069 4.22337C39.5594 3.48589 39.712 2.85012 39.7501 2.78655C39.8137 2.68483 42.7374 2.81198 42.8518 2.93913Z" fill="black"/>
<path d="M39.3941 9.23321C36.7373 9.99612 34.6907 12.056 33.9916 14.688C33.7628 15.5654 33.7628 17.4727 34.0043 18.3882C34.4746 20.1937 35.9365 22.1264 37.5001 23.0038C39.2924 24.021 41.5551 24.288 43.4111 23.7031C45.6611 23.0038 47.5551 21.2109 48.3051 19.0621C48.7119 17.9177 48.8518 16.7098 48.6992 15.6417C48.5975 14.8533 48.5212 14.6626 48.178 14.3574C47.7458 13.976 47.3263 13.9251 46.7797 14.2049C46.284 14.4592 46.2077 14.7389 46.2077 16.3029C46.195 18.0067 45.9153 18.7823 44.9111 19.8631C42.0509 22.9529 37.106 21.4652 36.3433 17.2819C36.2289 16.6462 36.2289 16.2774 36.3306 15.718C36.8899 12.9461 39.1526 11.2931 42.0382 11.5474C42.9407 11.6364 42.9535 11.6237 43.3348 11.2422C43.8687 10.7209 43.8687 10.1106 43.3602 9.53837L42.9916 9.11877L41.4789 9.09334C40.5382 9.08063 39.7628 9.13149 39.3941 9.23321Z" fill="black"/>
<path d="M2.50424 7.96168C1.36017 8.38128 0.432203 9.33492 0.127119 10.4539C0.0508475 10.7336 0 17.5998 0 29.1452V47.3915L0.368644 48.1672C0.800847 49.0827 1.55085 49.7693 2.4661 50.0872C3.07627 50.3033 4.52542 50.316 30 50.316C55.4746 50.316 56.9237 50.3033 57.5339 50.0872C58.4237 49.782 59.1483 49.1208 59.6059 48.1926L60 47.417V36.1132V24.7966L59.6314 24.4279C59.1102 23.9193 58.4746 23.9193 57.9534 24.4279L57.5847 24.7966V35.719C57.5847 45.853 57.572 46.6541 57.3559 47.0737C57.2415 47.3153 57 47.5823 56.822 47.6713C56.3517 47.9129 3.6483 47.9129 3.17797 47.6713C3 47.5823 2.75847 47.3153 2.64407 47.0737C2.42797 46.6541 2.41525 45.5351 2.41525 29.0181C2.41525 12.501 2.42797 11.3821 2.64407 10.9625C2.7839 10.6573 3 10.4666 3.30508 10.3649C3.63559 10.2504 6.26695 10.2123 13.3475 10.2123C23.8729 10.1996 23.3136 10.2377 23.6441 9.44936C23.8475 8.95346 23.7203 8.483 23.3008 8.08883L22.9703 7.78366H12.9788C4.90678 7.79638 2.8983 7.82181 2.50424 7.96168Z" fill="black"/>
<path d="M7.8687 39.4318C7.24582 40.0548 7.42378 41.0339 8.22463 41.4153C8.59327 41.5934 9.02548 41.6188 10.8306 41.5806L12.9916 41.5425L13.3602 41.1229C13.767 40.6651 13.8179 40.2455 13.5509 39.7115C13.2458 39.1393 12.8899 39.063 10.4746 39.063H8.23734L7.8687 39.4318Z" fill="black"/>
<path d="M17.9111 39.4318C17.517 39.8386 17.4153 40.4998 17.6823 40.9957C18.0255 41.6188 17.5043 41.6061 35.034 41.6061C49.5255 41.6061 51.4323 41.5806 51.8009 41.4153C52.5763 41.0339 52.7416 40.0548 52.1314 39.4318L51.7628 39.063H35.0212H18.2797L17.9111 39.4318Z" fill="black"/>
<path d="M23.1862 52.9862C22.576 53.3041 22.4998 53.6092 22.4998 55.8471V57.8815H21.0252C20.2243 57.8815 19.4489 57.9451 19.2964 58.0214C18.8896 58.2376 18.6481 58.9623 18.8133 59.4709C19.1057 60.3483 18.432 60.2974 30.0379 60.2974C40.4871 60.2974 40.4998 60.2974 40.7921 60.0304C41.2116 59.6362 41.3515 59.1912 41.1862 58.6953C40.9447 57.9833 40.6777 57.8815 38.9998 57.8815H37.4998V55.8471C37.4998 53.4566 37.4108 53.1515 36.6226 52.9099C35.9871 52.7192 35.4913 52.948 35.1862 53.5584C34.9955 53.9271 34.9574 54.3467 34.9574 55.9361V57.8815H29.9998H25.0421V55.9743C25.0421 54.0288 24.9277 53.4312 24.5082 53.0879C24.1904 52.8209 23.6057 52.7827 23.1862 52.9862Z" fill="black"/>
</svg>
