<svg width="60" height="60" viewBox="0 0 60 60" fill="none" xmlns="http://www.w3.org/2000/svg">
<path d="M28.7864 0.181381C27.1214 0.779335 26.0895 2.12766 25.9722 3.82772C25.9253 4.51946 26.2068 6.05538 26.711 7.73199C26.7579 7.90786 26.6523 7.9313 25.9136 7.96648L25.0577 8.00165L25.0225 8.96307L24.9873 9.9362H25.9957H26.9924V10.9211V11.9059L22.0442 11.9645C16.6504 12.0349 16.3221 12.0583 14.317 12.7501C13.7307 12.9494 13.2382 13.1018 13.2265 13.0784C13.2148 13.0549 13.0858 12.8556 12.9334 12.6094C12.6519 12.1404 12.2064 11.9294 11.7491 12.0466C11.4911 12.1052 11.2683 12.3515 10.8696 13.0432C10.7524 13.2308 10.6469 13.1956 9.66191 12.7032C9.07563 12.4101 8.5597 12.1639 8.52453 12.1639C8.4659 12.1639 7.6451 13.7467 7.6451 13.8639C7.6451 13.8874 8.17276 14.1805 8.80594 14.497L9.96678 15.0833L4.98339 25.9637L0 36.8323L0.0703537 37.653C0.222787 39.3296 1.10221 41.0766 2.35685 42.1904C3.10729 42.8587 4.58472 43.6208 5.53449 43.8201C5.99179 43.9139 8.0086 43.9374 12.394 43.9139C18.503 43.8788 18.6203 43.8788 19.3004 43.6208C21.0592 42.9525 22.4663 41.7097 23.2402 40.1503C23.7561 39.1069 24.1196 37.6765 24.0258 37.0199C23.9906 36.7971 21.7393 31.7556 19.0307 25.8347C16.3103 19.9021 14.1294 15.0247 14.1763 14.9778C14.3404 14.8253 15.5599 14.415 16.451 14.2157C17.1663 14.0515 18.1982 14.0046 22.1614 13.9577L26.9924 13.8991V32.2949V50.679L25.3156 52.3556L23.6506 54.0205H21.5282C19.23 54.0205 18.5382 54.1377 17.5884 54.6653C16.369 55.3454 15.4192 56.6937 15.1495 58.1123C14.9736 59.0738 14.9971 59.2848 15.3723 59.66L15.7123 60H30.041H44.3697L44.7098 59.66C45.085 59.2848 45.1085 59.0738 44.9326 58.1123C44.6629 56.6937 43.7131 55.3454 42.4936 54.6653C41.5439 54.1377 40.8521 54.0205 38.5421 54.0205H36.4315L34.7547 52.3439L33.0897 50.679V32.2832V13.8991L37.9324 13.9577C41.8839 14.0046 42.9158 14.0515 43.631 14.2157C44.5222 14.415 45.7416 14.8253 45.9058 14.9778C45.9527 15.0247 43.7717 19.9138 41.0514 25.8347C38.3428 31.7556 36.0915 36.7971 36.0563 37.0199C35.9742 37.6765 36.326 39.1069 36.8419 40.1503C37.6158 41.7097 39.0229 42.9525 40.7817 43.6208C41.4618 43.8788 41.579 43.8788 47.6881 43.9139C52.0735 43.9374 54.0903 43.9139 54.5476 43.8201C55.4739 43.6208 56.9631 42.8704 57.7018 42.2139C59.0385 41.0414 59.9765 39.0717 59.9883 37.4303L60 36.6095L55.0518 25.8464L50.1153 15.0833L51.2761 14.497C51.9093 14.1805 52.437 13.8874 52.437 13.8639C52.437 13.7467 51.6162 12.1639 51.5576 12.1639C51.5224 12.1639 51.0182 12.3984 50.4436 12.6915C49.8691 12.9846 49.3649 13.2191 49.3297 13.2191C49.3062 13.2191 49.1655 13.008 49.0365 12.7384C48.5792 11.859 47.6295 11.777 47.1487 12.5625C47.0315 12.7618 46.9142 12.9729 46.8908 13.0315C46.879 13.0784 46.3748 12.9611 45.7768 12.7618C43.7483 12.0583 43.4317 12.0349 38.0496 11.9645L33.0897 11.9059V10.9211V9.9362H34.0864H35.0948L35.0596 8.96307L35.0244 8.00165L34.1685 7.96648C33.418 7.9313 33.3242 7.90786 33.3711 7.73199C33.4063 7.62647 33.6056 6.85265 33.805 6.00848C34.0864 4.83603 34.1567 4.32014 34.1098 3.76909C33.9457 1.70557 32.351 0.14621 30.2638 0.0172386C29.6072 -0.0296593 29.2437 0.0172386 28.7864 0.181381ZM30.5687 2.09248C31.2371 2.28008 31.6826 2.63181 31.9289 3.18287C32.2337 3.85117 32.2103 4.13255 31.7178 6.14917L31.284 7.94303H30.041H28.7981L28.3643 6.14917C27.8718 4.13255 27.8483 3.85117 28.1532 3.18287C28.3995 2.64354 28.845 2.28008 29.4548 2.10421C30.0059 1.94006 30.0293 1.94006 30.5687 2.09248ZM31.0729 10.9562L31.1081 11.9294H30.041H28.9857V11.0149C28.9857 10.5107 29.0209 10.0534 29.0678 10.0065C29.1147 9.95965 29.572 9.94793 30.0997 9.95965L31.0377 9.99482L31.0729 10.9562ZM31.0377 31.9783V49.9755H30.041H29.0444L29.0092 32.0956C28.9975 22.2587 29.0092 14.1453 29.0444 14.0632C29.0795 13.9577 29.361 13.9225 30.0645 13.946L31.0377 13.9812V31.9783ZM16.8614 25.905L21.4344 35.9061L16.7794 35.9412C14.2115 35.953 9.9785 35.953 7.37542 35.9412L2.62654 35.9061L7.19953 25.905C11.1628 17.264 11.8194 15.9157 12.0305 15.9157C12.2415 15.9157 12.8982 17.264 16.8614 25.905ZM52.8825 25.905L57.4555 35.9061L52.7067 35.9412C50.1036 35.953 45.8706 35.953 43.3027 35.9412L38.6476 35.9061L43.2206 25.905C47.1839 17.264 47.8405 15.9157 48.0516 15.9157C48.2627 15.9157 48.9193 17.264 52.8825 25.905ZM21.8917 38.2158C21.4931 39.611 20.2267 41.0649 18.9486 41.5925L18.2568 41.8856L12.2533 41.9208C5.52277 41.9559 5.55794 41.9559 4.27985 41.1352C3.31835 40.5138 2.46238 39.3296 2.20442 38.2744L2.13406 37.9579H12.0422H21.9621L21.8917 38.2158ZM57.8777 38.2744C57.6197 39.3296 56.7637 40.5138 55.8022 41.1352C54.5241 41.9559 54.5593 41.9559 47.8288 41.9208L41.8253 41.8856L41.1335 41.5925C39.8554 41.0649 38.589 39.611 38.1903 38.2158L38.12 37.9579H48.0399H57.948L57.8777 38.2744ZM32.6207 53.0239L33.6174 54.0205H30.041H26.4647L27.4614 53.0239L28.4581 52.0273H30.041H31.624L32.6207 53.0239ZM40.9576 56.1544C41.7315 56.4123 42.5171 57.1275 42.7751 57.7958C42.8454 57.9951 42.1888 58.0068 30.041 58.0068C17.8933 58.0068 17.2367 57.9951 17.307 57.7958C17.565 57.1392 18.292 56.4592 19.0659 56.1661C19.5818 55.9785 40.383 55.955 40.9576 56.1544Z" fill="black"/>
</svg>
