<?xml version="1.0" standalone="no"?>
<!DOCTYPE svg PUBLIC "-//W3C//DTD SVG 20010904//EN"
 "http://www.w3.org/TR/2001/REC-SVG-20010904/DTD/svg10.dtd">
<svg version="1.0" xmlns="http://www.w3.org/2000/svg"
 width="670.000000pt" height="310.000000pt" viewBox="0 0 670.000000 310.000000"
 preserveAspectRatio="xMidYMid meet">

<g transform="translate(0.000000,310.000000) scale(0.100000,-0.100000)"
fill="#000000" stroke="none">
<path d="M3138 2915 c-280 -53 -532 -264 -641 -536 -50 -125 -59 -189 -54
-364 4 -146 7 -167 34 -241 62 -172 187 -339 328 -440 341 -242 802 -211 1108
76 138 129 222 273 258 445 18 83 20 123 17 240 -4 124 -9 151 -37 234 -43
129 -111 239 -202 332 -115 116 -252 199 -391 240 -96 28 -309 35 -420 14z
m277 -727 c48 -117 109 -262 133 -323 53 -129 55 -132 93 -140 16 -4 29 -13
29 -21 0 -11 -24 -14 -126 -14 -96 0 -125 3 -122 12 3 7 21 17 40 23 49 13 50
17 35 56 -8 19 -27 67 -41 107 l-28 72 -132 0 -133 0 -42 -108 c-22 -59 -41
-110 -41 -115 0 -4 10 -7 23 -7 38 0 67 -12 67 -26 0 -11 -23 -14 -110 -14
-113 0 -140 11 -80 32 38 13 30 -2 185 371 95 227 132 307 145 307 12 0 40
-58 105 -212z"/>
<path d="M3255 2188 c-20 -51 -46 -114 -56 -140 l-19 -48 110 0 c124 0 124 0
90 72 -11 24 -35 81 -53 126 l-34 84 -38 -94z"/>
<path d="M2411 1834 c0 -11 3 -14 6 -6 3 7 2 16 -1 19 -3 4 -6 -2 -5 -13z"/>
<path d="M1860 1820 c-13 -8 -12 -10 3 -10 9 0 17 5 17 10 0 12 -1 12 -20 0z"/>
<path d="M4740 1820 c0 -5 7 -10 16 -10 8 0 12 5 9 10 -3 6 -10 10 -16 10 -5
0 -9 -4 -9 -10z"/>
</g>
</svg>
