<svg width="61" height="60" viewBox="0 0 61 60" fill="none" xmlns="http://www.w3.org/2000/svg">
<path d="M28.6686 0.1189C28.3522 0.177494 27.6608 0.435307 27.1335 0.6814C25.3522 1.53687 23.9225 3.40015 23.5827 5.29859C23.3835 6.37671 23.4186 10.9002 23.6296 11.7908C23.9694 13.2087 24.9304 14.7087 26.0319 15.5291L26.6179 15.9627V16.9119V17.8611L23.5358 18.8806C21.4264 19.5837 20.2663 20.0291 19.8679 20.2986C19.2936 20.6853 18.5202 21.4587 18.1686 22.0095L17.9694 22.3025L17.2194 21.5877C15.1921 19.6423 12.2507 19.2205 9.69597 20.5095C8.25457 21.2361 6.91863 22.9002 6.41472 24.5759C6.14519 25.4783 6.14519 30.7751 6.40301 31.7947C6.76629 33.1541 7.78582 34.6423 8.92254 35.4275L9.40301 35.7556L9.36785 36.6931L9.33269 37.6306L6.25066 38.6619C2.92254 39.7751 2.34832 40.0564 1.46941 41.0291C0.449881 42.1658 0.0162867 43.408 0.0162867 45.2244C0.0162867 46.1853 0.051443 46.3962 0.262381 46.6658C0.567068 47.0525 1.16472 47.0876 1.49285 46.7244C1.66863 46.5251 1.72722 46.2205 1.78582 45.1072C1.83269 44.3103 1.93816 43.5837 2.04363 43.3376C2.34832 42.6462 2.93426 41.9314 3.49676 41.5798C3.95379 41.2869 9.09832 39.4705 9.4616 39.4705C9.53191 39.4705 9.6491 39.5994 9.71941 39.7517C9.78972 39.9158 10.0475 40.2673 10.2936 40.5369C11.571 41.9548 13.8913 41.9548 15.1686 40.5369C15.4147 40.2673 15.6725 39.9158 15.7429 39.7517C15.8132 39.5994 15.9304 39.4705 16.0007 39.4705C16.3757 39.4705 21.5085 41.2869 21.9772 41.5798C22.2702 41.7673 22.6921 42.1658 22.903 42.4705C23.5593 43.408 23.5827 43.3611 22.2468 43.8064C20.6764 44.3103 19.7975 44.7556 19.1061 45.4119C17.9694 46.4666 17.4538 47.6384 17.3014 49.4666L17.2194 50.4861H11.9577H6.69597V49.2087C6.69597 47.9666 6.68426 47.9197 6.39129 47.6853C6.02801 47.4041 5.88738 47.3806 5.47722 47.5681C5.07879 47.7556 4.93816 48.2361 4.93816 49.4431V50.4861H3.35613H1.7741V50.2048C1.7741 49.4548 0.707693 49.0681 0.238943 49.6541C-0.089182 50.0642 -0.0774633 51.5056 0.262381 51.9392L0.496756 52.2439H8.87566H17.2429V55.6306C17.2429 59.0642 17.2897 59.5212 17.6882 59.8142C17.9811 60.0486 42.0514 60.0486 42.3444 59.8142C42.9421 59.3689 42.9421 57.658 42.3444 57.2126C41.8288 56.8142 41.0319 57.2244 41.0319 57.8689V58.2205H39.3913H37.7507V55.4666C37.7507 52.865 37.7389 52.7009 37.5163 52.4783C37.1647 52.1267 36.5436 52.1619 36.2389 52.5486C36.0046 52.8416 35.9929 53.0056 35.9929 55.5369V58.2205H30.0163H24.0397V55.5369C24.0397 53.0056 24.028 52.8416 23.7936 52.5486C23.4889 52.1619 22.8679 52.1267 22.5163 52.4783C22.2936 52.7009 22.2819 52.865 22.2819 55.4666V58.2205H20.6296H18.9889L19.0358 53.4978C19.0827 48.4119 19.0944 48.3181 19.7389 47.3689C20.3952 46.3845 20.8405 46.1384 23.8288 45.1541C25.3288 44.6501 26.6179 44.2166 26.6999 44.1931C26.7702 44.158 26.946 44.3455 27.0632 44.5916C27.3679 45.1541 27.9304 45.6931 28.61 46.0447C29.0202 46.2556 29.3249 46.3142 30.0163 46.3142C30.7077 46.3142 31.0124 46.2556 31.4225 46.0447C32.1022 45.6931 32.6647 45.1541 32.9694 44.5916C33.0866 44.3455 33.2624 44.158 33.3327 44.1931C33.4147 44.2166 34.7038 44.6501 36.2038 45.1541C38.1608 45.7986 39.0749 46.1619 39.4264 46.4314C39.9889 46.8533 40.61 47.7205 40.8093 48.3533C40.8913 48.5994 40.9733 49.947 40.9968 51.5173L41.0554 54.2361L41.3483 54.4705C41.8757 54.8806 42.4264 54.7048 42.6725 54.072C42.7311 53.8962 42.7897 53.4158 42.7897 52.9939V52.2439H51.1569H59.5358L59.7702 51.9392C60.11 51.5056 60.1218 50.0642 59.7936 49.6541C59.3249 49.0681 58.2585 49.4548 58.2585 50.2048V50.4861H56.6764H55.0944V49.4431C55.0944 48.2361 54.9538 47.7556 54.5554 47.5681C54.1452 47.3806 54.0046 47.4041 53.6413 47.6853C53.3483 47.9197 53.3366 47.9666 53.3366 49.2087V50.4861H48.0749H42.8132L42.7311 49.4548C42.5788 47.6384 42.0632 46.4666 40.9264 45.4119C40.235 44.7556 39.3561 44.3103 37.7858 43.8064C36.4499 43.3611 36.4733 43.408 37.1296 42.4705C37.3405 42.1658 37.7624 41.7673 38.0554 41.5798C38.5241 41.2869 43.6569 39.4705 44.0319 39.4705C44.1022 39.4705 44.2194 39.5994 44.2897 39.7517C44.5241 40.2791 45.2975 41.0291 45.8952 41.2986C46.7038 41.6853 47.8991 41.6853 48.7077 41.2986C49.3054 41.0291 50.0788 40.2791 50.3132 39.7517C50.3835 39.5994 50.5007 39.4705 50.5593 39.4705C50.9225 39.4705 56.0788 41.2869 56.5358 41.5798C57.0983 41.9314 57.6843 42.6462 57.9889 43.3376C58.0944 43.5837 58.1999 44.3103 58.2468 45.1072C58.3054 46.2205 58.3639 46.5251 58.5397 46.7244C58.8679 47.0876 59.4655 47.0525 59.7702 46.6658C59.9811 46.3962 60.0163 46.1853 60.0163 45.2244C60.0163 43.408 59.5827 42.1658 58.5632 41.0291C57.6843 40.0564 57.11 39.7751 53.7819 38.6619L50.6999 37.6306L50.6647 36.6931L50.6296 35.7556L51.11 35.4275C52.2468 34.6423 53.2663 33.1541 53.6296 31.7947C53.8757 30.822 53.8874 25.6423 53.6296 24.6697C53.196 23.0056 51.8132 21.2595 50.3366 20.5095C47.7819 19.2205 44.8405 19.6423 42.8132 21.5877L42.0632 22.3025L41.8639 22.0095C41.5124 21.4587 40.7389 20.6853 40.1647 20.2986C39.778 20.0408 38.5827 19.572 36.5085 18.8806L33.4147 17.8494V16.9119V15.9627L34.0007 15.5291C35.1257 14.6853 36.0749 13.197 36.4147 11.7322C36.5671 11.0877 36.5905 10.3845 36.5554 8.06421C36.5085 5.33374 36.4968 5.15796 36.2155 4.41968C35.7819 3.29468 35.3835 2.67359 34.5749 1.86499C33.0866 0.364994 30.8483 -0.291256 28.6686 0.1189ZM31.235 1.91187C32.9108 2.34546 34.3054 3.78687 34.6921 5.48609C34.8913 6.35328 34.8561 10.7009 34.6335 11.5212C34.2702 12.9275 33.3444 14.0408 32.0319 14.6619C31.3054 15.0134 31.153 15.0369 30.0163 15.0369C28.8796 15.0369 28.7272 15.0134 28.0007 14.6619C27.1335 14.2517 26.3483 13.5369 25.8796 12.74C25.3288 11.8025 25.2116 11.0525 25.2116 8.41578C25.2116 5.19312 25.3991 4.48999 26.5475 3.28296C27.8132 1.94703 29.5007 1.45484 31.235 1.91187ZM31.6335 17.908C31.5866 19.115 31.446 19.4783 30.86 19.8533C30.4499 20.1228 29.5827 20.1228 29.1725 19.8533C28.5866 19.4783 28.446 19.115 28.3991 17.908L28.3522 16.7947H30.0163H31.6804L31.6335 17.908ZM27.2272 20.3103C27.9889 21.447 29.36 22.0447 30.6491 21.7752C31.6804 21.5642 32.4069 21.0017 33.1218 19.8533C33.2272 19.6892 33.5554 19.7712 35.9343 20.5564C37.4225 21.0369 38.8522 21.5642 39.11 21.7166C39.6843 22.0564 40.2233 22.6423 40.5866 23.3337C40.8327 23.7791 40.8561 23.9431 40.7975 24.9978C40.7624 25.6423 40.7389 27.2127 40.7389 28.49V30.7986H38.6764H36.6022L36.5319 30.2361C36.3093 28.6892 35.571 27.3181 34.3757 26.2048C30.5202 22.6541 24.2389 24.9861 23.5007 30.2361L23.4304 30.7986H21.3444H19.2702L19.3288 29.0994C19.3639 28.1619 19.3171 26.6619 19.235 25.7712C19.0944 24.1306 19.0944 24.1306 19.3874 23.5095C19.7272 22.7595 20.2663 22.115 20.8522 21.7517C21.2389 21.5056 26.571 19.6658 26.7585 19.7009C26.7936 19.7127 27.0046 19.9822 27.2272 20.3103ZM14.6882 21.9392C16.3171 22.7127 17.2663 24.0603 17.4889 25.9353C17.6882 27.5525 17.5593 30.7986 17.2663 31.6423C16.7858 32.99 15.778 34.0447 14.4655 34.5603C13.5163 34.9353 11.946 34.9353 11.0319 34.572C9.68426 34.033 8.58269 32.8728 8.17254 31.572C7.99676 31.033 7.97332 30.5173 8.00847 27.9627C8.04363 25.0447 8.04363 24.9861 8.34832 24.3416C8.8991 23.1814 9.95379 22.2205 11.1843 21.7634C12.1218 21.4236 13.7975 21.5056 14.6882 21.9392ZM48.8014 21.7634C50.0671 22.197 51.0983 23.1345 51.6843 24.3533L51.9889 24.9978V28.2205V31.4431L51.6374 32.1462C51.2389 32.9666 50.3132 33.9392 49.61 34.3025C46.9264 35.6736 43.7624 34.4431 42.7663 31.6541C42.5788 31.1033 42.5202 30.5876 42.4733 28.9822C42.3561 25.0447 42.8249 23.5798 44.6413 22.3377C45.8132 21.5291 47.4655 21.3064 48.8014 21.7634ZM30.9772 26.3572C32.4421 26.6619 33.7077 27.6931 34.3874 29.1345L34.7624 29.9197L34.7975 32.5798C34.8444 35.5681 34.7389 36.2478 34.0827 37.3494C33.6022 38.1462 32.9694 38.697 32.0085 39.1658C31.3054 39.5056 31.153 39.5291 30.0163 39.5291C28.8796 39.5291 28.7272 39.5056 28.0241 39.1658C27.0632 38.697 26.4304 38.1462 25.9499 37.3494C25.2936 36.2478 25.1882 35.5681 25.235 32.5798L25.2702 29.9197L25.6452 29.1345C26.6413 27.0134 28.7858 25.9002 30.9772 26.3572ZM23.4538 34.0447C23.4538 35.7673 23.6413 36.7166 24.1686 37.7595C24.6374 38.6736 25.2116 39.3884 25.9968 39.9861L26.6179 40.4666V41.4275V42.3767L25.8913 42.6228C25.4929 42.7517 25.1647 42.8572 25.1413 42.8337C25.1296 42.822 24.9889 42.5408 24.8249 42.2244C24.4382 41.4509 23.6061 40.5251 22.8796 40.0681C22.528 39.8337 21.11 39.2947 19.2116 38.6619L16.1296 37.6306L16.0944 36.6931L16.0593 35.7556L16.5397 35.4275C17.2311 34.947 18.0866 33.9744 18.485 33.2126L18.8249 32.5564H21.1452H23.4538V34.0447ZM41.5475 33.2126C41.946 33.9744 42.8014 34.947 43.4929 35.4275L43.9733 35.7556L43.9382 36.6931L43.903 37.6306L40.821 38.6619C38.9225 39.2947 37.5046 39.8337 37.153 40.0681C36.4264 40.5251 35.5944 41.4509 35.2077 42.2244C35.0436 42.5408 34.903 42.822 34.8913 42.8337C34.8679 42.8572 34.5397 42.7517 34.1413 42.6228L33.4147 42.3767V41.4275V40.4666L34.0358 39.9861C34.821 39.3884 35.3952 38.6736 35.8639 37.7595C36.3913 36.7166 36.5788 35.7673 36.5788 34.0447V32.5564H38.8991H41.2077L41.5475 33.2126ZM12.7311 36.658C13.1179 36.658 13.6335 36.6111 13.8796 36.5525L14.3132 36.447V37.5837C14.3132 38.8494 14.1257 39.3181 13.5046 39.6462C12.7546 40.0212 11.8053 39.7751 11.3835 39.0837C11.196 38.7791 11.1491 38.4978 11.1491 37.5837V36.447L11.5944 36.5525C11.8288 36.6111 12.3444 36.658 12.7311 36.658ZM47.3014 36.658C47.6882 36.658 48.2038 36.6111 48.4499 36.5525L48.8835 36.447V37.5837C48.8835 38.8494 48.696 39.3181 48.0749 39.6462C47.3249 40.0212 46.3757 39.7751 45.9538 39.0837C45.7663 38.7791 45.7194 38.4978 45.7194 37.5837V36.447L46.1647 36.5525C46.3991 36.6111 46.9147 36.658 47.3014 36.658ZM31.6335 42.4119C31.5983 43.2205 31.5397 43.6189 31.3874 43.8416C30.7546 44.8142 29.3718 44.8376 28.6804 43.8884C28.4929 43.6306 28.4343 43.3376 28.3991 42.4236L28.3522 41.2869H30.0163H31.6804L31.6335 42.4119Z" fill="black"/>
</svg>
