<svg width="93" height="93" viewBox="0 0 93 93" fill="none" xmlns="http://www.w3.org/2000/svg">
<g clip-path="url(#clip0_53103_53)" filter="url(#filter0_d_53103_53)">
<path d="M85.4583 38.9583C84.519 38.9583 83.6182 39.3315 82.954 39.9957C82.2898 40.6599 81.9167 41.5607 81.9167 42.5C81.9454 50.7353 79.1131 58.725 73.9037 65.1035C68.6944 71.4819 61.4314 75.853 53.3563 77.4698C45.2811 79.0865 36.8952 77.8484 29.6317 73.9672C22.3682 70.086 16.6782 63.8026 13.5343 56.1909C10.3903 48.5793 9.98757 40.112 12.3949 32.2363C14.8022 24.3606 19.8701 17.5654 26.7324 13.0123C33.5946 8.45922 41.8252 6.4308 50.0174 7.27377C58.2095 8.11675 65.8546 11.7788 71.6458 17.634C71.5294 17.6657 71.4111 17.6906 71.2917 17.7083H60.6667C59.7274 17.7083 58.8265 18.0815 58.1623 18.7457C57.4981 19.4099 57.125 20.3107 57.125 21.25C57.125 22.1893 57.4981 23.0901 58.1623 23.7543C58.8265 24.4185 59.7274 24.7917 60.6667 24.7917H71.2917C74.1096 24.7917 76.8121 23.6723 78.8047 21.6797C80.7973 19.6871 81.9167 16.9846 81.9167 14.1667V3.54167C81.9167 2.60236 81.5435 1.70152 80.8793 1.03733C80.2151 0.373139 79.3143 0 78.375 0C77.4357 0 76.5349 0.373139 75.8707 1.03733C75.2065 1.70152 74.8333 2.60236 74.8333 3.54167V10.8552C67.5819 4.37229 58.3253 0.574339 48.6103 0.0959884C38.8953 -0.382363 29.3103 2.48787 21.4572 8.22706C13.604 13.9663 7.95829 22.2267 5.4635 31.6282C2.96872 41.0296 3.77596 51.0024 7.75035 59.8802C11.7247 68.758 18.6255 76.0029 27.2995 80.4043C35.9735 84.8057 45.8953 86.097 55.4069 84.0623C64.9185 82.0277 73.4438 76.7904 79.5581 69.2256C85.6724 61.6608 89.0053 52.2268 89 42.5C89 41.5607 88.6269 40.6599 87.9627 39.9957C87.2985 39.3315 86.3976 38.9583 85.4583 38.9583ZM46.5 21.25C45.5607 21.25 44.6599 21.6231 43.9957 22.2873C43.3315 22.9515 42.9583 23.8524 42.9583 24.7917V42.5C42.9585 43.4392 43.3318 44.3399 43.996 45.004L54.621 55.629C55.289 56.2741 56.1836 56.6311 57.1123 56.623C58.0409 56.6149 58.9292 56.2425 59.5858 55.5858C60.2425 54.9292 60.6149 54.0409 60.623 53.1123C60.6311 52.1836 60.2741 51.289 59.629 50.621L50.0417 41.0338V24.7917C50.0417 23.8524 49.6685 22.9515 49.0043 22.2873C48.3401 21.6231 47.4393 21.25 46.5 21.25Z" fill="#DEB64F"/>
</g>
<defs>
<filter id="filter0_d_53103_53" x="0" y="0" width="93" height="93" filterUnits="userSpaceOnUse" color-interpolation-filters="sRGB">
<feFlood flood-opacity="0" result="BackgroundImageFix"/>
<feColorMatrix in="SourceAlpha" type="matrix" values="0 0 0 0 0 0 0 0 0 0 0 0 0 0 0 0 0 0 127 0" result="hardAlpha"/>
<feOffset dy="4"/>
<feGaussianBlur stdDeviation="2"/>
<feComposite in2="hardAlpha" operator="out"/>
<feColorMatrix type="matrix" values="0 0 0 0 0 0 0 0 0 0 0 0 0 0 0 0 0 0 0.25 0"/>
<feBlend mode="normal" in2="BackgroundImageFix" result="effect1_dropShadow_53103_53"/>
<feBlend mode="normal" in="SourceGraphic" in2="effect1_dropShadow_53103_53" result="shape"/>
</filter>
<clipPath id="clip0_53103_53">
<rect width="85" height="85" fill="white" transform="translate(4)"/>
</clipPath>
</defs>
</svg>
